<?xml version="1.0" standalone="no"?>
<!DOCTYPE svg PUBLIC "-//W3C//DTD SVG 20010904//EN"
 "http://www.w3.org/TR/2001/REC-SVG-20010904/DTD/svg10.dtd">
<svg version="1.0" xmlns="http://www.w3.org/2000/svg"
 width="1920.000000pt" height="1473.000000pt" viewBox="0 0 1920.000000 1473.000000"
 preserveAspectRatio="xMidYMid meet">

<g transform="translate(0.000000,1473.000000) scale(0.100000,-0.100000)"
fill="#000000" stroke="none">
<path d="M17751 14369 c-122 -36 -201 -168 -173 -289 22 -96 91 -167 184 -190
28 -7 151 -10 348 -8 278 3 308 5 344 22 91 45 140 125 140 226 0 101 -49 181
-140 226 -36 17 -65 19 -354 21 -185 1 -329 -2 -349 -8z m444 -178 c7 -12 -12
-24 -25 -16 -11 7 -4 25 10 25 5 0 11 -4 15 -9z m-295 -51 c0 -47 2 -50 25
-50 14 0 25 -4 25 -10 0 -5 -18 -10 -40 -10 l-40 0 0 60 c0 47 3 60 15 60 11
0 15 -12 15 -50z m148 -23 c3 -31 0 -39 -20 -46 -44 -17 -81 27 -58 69 9 16
19 20 43 18 29 -3 32 -6 35 -41z m102 -11 c0 -35 -5 -58 -15 -66 -17 -14 -65
-6 -65 11 0 7 10 9 25 5 14 -4 25 -2 25 3 0 5 -10 11 -21 13 -32 5 -45 31 -31
62 9 21 19 26 47 26 l35 0 0 -54z m40 9 c0 -25 -4 -45 -10 -45 -5 0 -10 20
-10 45 0 25 5 45 10 45 6 0 10 -20 10 -45z m98 -2 c2 -34 0 -43 -12 -43 -12 0
-16 10 -16 35 0 19 -4 35 -10 35 -5 0 -10 -16 -10 -35 0 -24 -5 -35 -15 -35
-11 0 -15 12 -15 46 l0 45 38 -3 c36 -3 37 -4 40 -45z"/>
<path d="M17993 14124 c-8 -22 15 -44 26 -25 10 16 4 41 -10 41 -5 0 -12 -7
-16 -16z"/>
<path d="M18094 14125 c-3 -8 -3 -19 1 -25 11 -18 25 -11 25 15 0 27 -17 34
-26 10z"/>
<path d="M620 14125 l0 -145 30 0 30 0 1 108 0 107 37 -105 c33 -95 39 -105
62 -105 22 0 28 10 62 105 l37 105 0 -107 1 -108 25 0 25 0 0 146 0 145 -42
-3 -42 -3 -31 -97 c-27 -89 -45 -121 -45 -84 0 8 -14 53 -31 100 l-31 86 -44
0 -44 0 0 -145z"/>
<path d="M1007 14263 c-13 -12 -7 -41 10 -47 21 -8 48 17 40 38 -6 16 -38 22
-50 9z"/>
<path d="M1120 14125 l0 -145 25 0 c16 0 25 6 25 16 0 14 1 14 16 0 22 -22 76
-20 102 4 82 77 -6 237 -96 174 -22 -15 -22 -15 -22 40 0 53 -1 56 -25 56
l-25 0 0 -145z m142 -20 c15 -59 -38 -108 -76 -70 -9 9 -16 32 -16 50 0 65 75
81 92 20z"/>
<path d="M1870 14125 l0 -145 30 0 c28 0 30 2 30 40 0 22 4 40 9 40 5 0 22
-18 38 -40 23 -32 34 -40 61 -40 l33 0 -41 55 c-22 30 -40 58 -40 62 0 4 17
24 37 45 l37 38 -36 0 c-30 0 -42 -7 -67 -37 l-31 -38 0 83 0 82 -30 0 -30 0
0 -145z"/>
<path d="M1408 14170 c-16 -12 -28 -28 -28 -36 0 -19 37 -18 56 1 20 19 53 19
61 0 8 -22 1 -26 -54 -36 -51 -10 -73 -29 -73 -64 0 -45 63 -70 111 -45 13 7
19 7 19 0 0 -5 11 -10 25 -10 25 0 25 1 25 89 0 101 -6 111 -73 118 -33 4 -48
0 -69 -17z m92 -115 c0 -17 -7 -28 -22 -34 -26 -10 -61 4 -55 22 3 9 45 30 75
36 1 1 2 -10 2 -24z"/>
<path d="M1692 14174 c-12 -8 -22 -10 -22 -5 0 6 -11 11 -25 11 l-25 0 0 -100
0 -100 25 0 c24 0 25 2 25 69 0 75 12 95 52 89 21 -3 23 -8 26 -80 l3 -78 30
0 31 0 -3 86 c-4 76 -7 88 -28 105 -28 23 -59 24 -89 3z"/>
<path d="M1000 14080 l0 -100 30 0 30 0 0 100 0 100 -30 0 -30 0 0 -100z"/>
<path d="M614 12818 c54 -211 60 -228 82 -228 18 0 24 12 44 88 12 48 25 90
29 94 4 4 17 -35 31 -87 20 -84 26 -95 45 -95 19 0 26 13 55 120 18 67 30 123
27 127 -18 17 -35 -15 -56 -103 -13 -55 -27 -92 -29 -84 -3 8 -15 53 -27 100
-18 70 -25 86 -42 88 -22 3 -22 4 -65 -153 l-13 -49 -25 102 c-20 86 -27 102
-43 102 -15 0 -18 -5 -13 -22z"/>
<path d="M1140 12715 c0 -118 1 -125 20 -125 19 0 20 7 20 125 0 118 -1 125
-20 125 -19 0 -20 -7 -20 -125z"/>
<path d="M2190 12715 c0 -104 2 -125 15 -125 8 0 15 4 15 9 0 5 12 5 28 -1 45
-17 81 -3 99 40 13 32 14 42 2 77 -19 53 -57 73 -99 51 l-30 -14 0 44 c0 32
-4 44 -15 44 -13 0 -15 -21 -15 -125z m118 13 c15 -15 16 -63 2 -89 -7 -12
-21 -19 -40 -19 -31 0 -50 22 -50 60 0 37 19 60 48 60 16 0 33 -5 40 -12z"/>
<path d="M2780 12715 c0 -102 3 -125 14 -125 10 0 16 13 18 37 2 20 8 38 13
39 6 2 23 -14 39 -36 17 -22 38 -40 48 -40 25 0 23 7 -18 57 l-37 45 39 39
c36 37 37 39 14 39 -14 0 -40 -15 -62 -37 l-38 -37 0 72 c0 57 -3 72 -15 72
-13 0 -15 -21 -15 -125z"/>
<path d="M3130 12715 l0 -125 80 0 c64 0 80 3 80 15 0 12 -13 15 -60 15 l-60
0 0 110 c0 103 -1 110 -20 110 -19 0 -20 -7 -20 -125z"/>
<path d="M994 12770 c-54 -21 -72 -105 -33 -154 24 -31 81 -36 117 -10 27 19
28 34 2 34 -11 0 -20 -4 -20 -10 0 -5 -16 -10 -35 -10 -31 0 -55 19 -55 44 0
3 29 6 65 6 l65 0 0 30 c0 28 -29 70 -49 70 -5 0 -15 2 -23 4 -7 3 -23 1 -34
-4z m61 -40 c24 -27 17 -32 -41 -28 l-49 3 23 23 c27 27 44 28 67 2z"/>
<path d="M1264 12770 c-57 -23 -73 -112 -29 -155 16 -17 35 -25 57 -25 38 0
78 24 78 46 0 19 -24 18 -40 -2 -20 -24 -63 -13 -78 19 -16 34 0 86 27 88 30
2 46 -3 54 -17 10 -18 37 -18 37 -1 0 34 -67 64 -106 47z"/>
<path d="M1454 12770 c-57 -23 -73 -112 -29 -155 55 -56 145 -16 145 64 0 67
-61 114 -116 91z m75 -62 c16 -45 -5 -83 -44 -83 -40 0 -63 42 -45 85 20 48
72 47 89 -2z"/>
<path d="M1666 12765 c-14 -8 -26 -10 -26 -4 0 5 -7 9 -15 9 -12 0 -15 -17
-15 -90 0 -73 3 -90 15 -90 12 0 15 14 15 64 0 70 12 90 52 84 21 -3 23 -8 26
-75 2 -56 6 -73 17 -73 12 0 15 15 15 64 0 70 12 90 52 84 21 -3 23 -8 26 -75
2 -56 6 -73 17 -73 20 0 22 152 3 167 -25 19 -46 21 -73 7 -16 -8 -32 -11 -39
-6 -23 18 -44 20 -70 7z"/>
<path d="M1951 12766 c-28 -16 -50 -52 -51 -84 0 -30 25 -78 45 -86 34 -13 82
-6 100 14 22 24 12 39 -15 22 -38 -24 -90 -9 -90 25 0 9 18 13 65 13 62 0 65
1 65 24 0 31 -37 74 -70 81 -14 2 -36 -1 -49 -9z m60 -26 c36 -20 23 -40 -26
-40 -48 0 -55 9 -29 34 18 19 28 20 55 6z"/>
<path d="M2441 12771 c-13 -3 -30 -16 -39 -29 -13 -20 -13 -22 7 -22 11 0 21
4 21 9 0 13 34 23 54 15 9 -3 16 -14 16 -24 0 -13 -11 -19 -44 -24 -52 -8 -69
-24 -64 -63 4 -36 45 -52 88 -36 17 6 30 7 30 2 0 -5 7 -9 15 -9 24 0 21 141
-2 162 -24 21 -53 27 -82 19z m69 -102 c0 -27 -22 -49 -50 -49 -54 0 -47 44 8
53 15 2 30 5 35 6 4 0 7 -4 7 -10z"/>
<path d="M2634 12770 c-54 -22 -72 -105 -33 -154 16 -20 29 -26 60 -26 38 0
79 26 79 50 0 15 -26 12 -40 -5 -35 -42 -98 6 -85 65 10 45 40 57 76 31 46
-34 66 -24 32 17 -21 25 -60 35 -89 22z"/>
<path d="M3578 12766 c-16 -8 -28 -11 -28 -5 0 5 -7 9 -15 9 -12 0 -15 -17
-15 -90 0 -73 3 -90 15 -90 12 0 15 13 15 56 0 66 13 94 43 94 37 0 47 -19 47
-87 0 -49 3 -63 15 -63 12 0 15 15 15 73 0 78 -4 88 -37 106 -27 14 -22 14
-55 -3z"/>
<path d="M3764 12770 c-57 -23 -73 -112 -29 -155 55 -56 145 -16 145 64 0 67
-61 114 -116 91z m75 -62 c16 -45 -5 -83 -44 -83 -40 0 -63 42 -45 85 20 48
72 47 89 -2z"/>
<path d="M3320 12702 c0 -83 16 -112 64 -112 17 0 37 5 44 12 9 9 12 9 12 0 0
-7 9 -12 20 -12 19 0 20 7 20 90 0 83 -1 90 -20 90 -18 0 -20 -7 -20 -64 0
-70 -12 -90 -52 -84 -21 3 -23 8 -26 76 -3 64 -5 72 -22 72 -18 0 -20 -7 -20
-68z"/>
<path d="M3929 12727 l29 -43 -34 -47 c-31 -42 -32 -47 -14 -47 11 0 29 15 43
36 l25 35 22 -35 c13 -22 30 -36 41 -36 22 0 20 5 -19 58 l-25 32 27 40 c30
46 31 50 12 50 -8 0 -25 -14 -37 -31 l-22 -31 -19 31 c-11 17 -29 31 -39 31
-18 0 -17 -4 10 -43z"/>
<path d="M11739 12756 c-101 -27 -165 -82 -211 -182 l-23 -49 0 -1225 0 -1225
26 -55 c37 -80 72 -115 147 -152 l67 -33 1200 -3 c660 -2 1220 0 1244 3 28 4
40 10 32 15 -11 6 -11 9 0 13 8 3 3 6 -10 6 l-24 1 23 20 23 20 -24 1 -24 1
25 8 c14 4 18 9 10 9 -13 1 -13 2 0 11 12 8 10 10 -9 10 l-24 0 23 20 23 20
-24 1 -24 1 25 8 c14 4 18 9 10 9 -13 1 -13 2 0 11 12 8 10 10 -9 10 l-24 0
23 20 23 20 -24 1 -24 1 25 8 c14 4 18 9 10 9 -13 1 -13 2 0 11 12 8 10 10 -9
10 l-24 0 23 20 23 20 -24 1 -24 1 25 8 c14 4 18 9 10 9 -13 1 -13 2 0 11 12
8 10 10 -9 10 l-24 0 23 20 c15 13 18 20 9 20 -54 0 -119 36 -119 66 0 19 46
18 54 -1 3 -8 10 -15 16 -15 6 0 18 7 26 15 9 9 11 15 4 15 -6 0 -8 5 -5 10 4
6 -5 10 -19 10 -33 0 -37 37 -4 42 11 2 22 11 24 21 3 25 -26 34 -41 14 -13
-19 -55 -23 -55 -7 0 6 11 22 25 36 18 18 34 24 60 22 19 -1 37 1 41 5 4 4 -4
7 -17 8 l-24 1 25 8 c14 4 18 9 10 9 -13 1 -13 2 0 11 12 8 10 10 -9 10 l-24
0 23 20 23 20 -24 1 -24 1 25 8 c14 4 18 9 10 9 -13 1 -13 2 0 11 12 8 10 10
-9 10 l-24 0 23 20 23 20 -24 1 -24 1 25 8 c14 4 18 9 10 9 -13 1 -13 2 0 11
12 8 10 10 -9 10 l-24 0 23 20 23 20 -24 1 -24 1 25 8 c14 4 18 9 10 9 -13 1
-13 2 0 11 12 8 10 10 -9 10 l-24 0 23 20 23 20 -24 1 -24 1 25 8 c14 4 18 9
10 9 -13 1 -13 2 0 11 12 8 10 10 -9 10 l-24 0 23 20 23 20 -24 1 -24 1 25 8
c14 4 18 9 10 9 -13 1 -13 2 0 11 12 8 10 10 -9 10 l-24 0 23 20 23 20 -24 1
-24 1 25 8 c14 4 18 9 10 9 -13 1 -13 2 0 11 12 8 10 10 -9 10 l-24 0 23 20
23 20 -24 1 -24 1 25 8 c14 4 18 9 10 9 -13 1 -13 2 0 11 12 8 10 10 -9 10
l-24 0 23 20 23 20 -24 1 -24 1 25 8 25 8 -27 1 c-28 1 -37 14 -18 26 6 4 7
11 4 17 -4 6 -2 8 4 4 6 -3 13 -2 16 3 4 5 -2 12 -11 14 -13 3 -10 5 7 6 19 1
22 3 10 10 -8 6 -18 7 -22 5 -13 -9 -21 25 -9 40 6 7 8 16 4 19 -3 4 5 7 18 7
17 0 20 3 10 9 -11 7 -11 9 0 14 8 3 3 6 -10 6 l-24 1 23 20 23 20 -24 1 -24
1 25 8 c14 4 18 9 10 9 -13 1 -13 2 0 11 12 8 10 10 -8 10 -13 0 -21 3 -19 8
3 4 -20 5 -50 3 -44 -2 -58 1 -65 13 -12 21 -28 20 -43 0 -25 -35 -32 -9 -12
44 24 64 42 65 68 2 l18 -45 0 48 c1 35 5 47 16 47 11 0 15 -12 15 -45 0 -43
1 -45 28 -45 28 0 28 1 27 50 -1 44 1 50 19 50 16 0 18 2 7 9 -11 7 -11 9 0
14 8 3 3 6 -10 6 l-24 1 23 20 23 20 -24 1 -24 1 25 8 c14 4 18 9 10 9 -13 1
-13 2 0 11 12 8 10 10 -9 10 l-24 0 23 20 23 20 -24 1 -24 1 25 8 c14 4 18 9
10 9 -13 1 -13 2 0 11 12 8 10 10 -9 10 l-24 0 23 20 23 20 -24 1 -24 1 25 8
c14 4 18 9 10 9 -13 1 -13 2 0 11 12 8 10 10 -9 10 l-24 0 23 20 23 20 -24 1
-24 1 25 8 c14 4 18 9 10 9 -13 1 -13 2 0 11 12 8 10 10 -9 10 l-24 0 23 20
23 20 -24 1 -24 1 25 8 c14 4 18 9 10 9 -13 1 -13 2 0 11 12 8 10 10 -9 10
l-24 0 23 20 23 20 -24 1 -24 1 25 8 c14 4 18 9 10 9 -13 1 -13 2 0 11 12 8
10 10 -9 10 l-24 0 23 20 23 20 -24 1 -24 1 25 8 c14 4 18 9 10 9 -13 1 -13 2
0 11 12 8 10 10 -9 10 l-24 0 23 20 23 20 -24 1 -24 1 25 8 c14 4 19 8 13 9
-7 1 -13 8 -13 16 0 8 6 15 13 16 6 1 1 5 -13 9 l-25 8 25 1 c18 1 21 4 11 10
-11 7 -11 9 0 14 8 3 3 6 -10 6 l-24 1 23 20 23 20 -24 1 -24 1 25 8 c14 4 18
9 10 9 -13 1 -13 2 0 11 12 8 10 10 -9 10 l-24 0 23 20 23 20 -24 1 -24 1 25
8 c14 4 18 9 10 9 -13 1 -13 2 0 11 12 8 10 10 -9 10 l-24 0 23 20 23 20 -24
1 -24 1 25 8 c14 4 18 9 10 9 -13 1 -13 2 0 11 12 8 10 10 -9 10 l-24 0 23 20
23 20 -24 1 -24 1 25 8 c14 4 18 9 10 9 -13 1 -13 2 0 11 12 8 10 10 -9 10
l-24 0 23 20 23 20 -24 1 -24 1 25 8 c14 4 18 9 10 9 -13 1 -13 2 0 11 12 8
10 10 -9 10 l-24 0 23 20 23 20 -24 1 -24 1 25 8 c14 4 18 9 10 9 -13 1 -13 2
0 11 12 8 10 10 -9 10 l-24 0 23 20 23 20 -1224 -1 c-937 0 -1235 -3 -1270
-13z m148 -383 l3 -53 -40 0 -40 0 0 56 0 55 38 -3 37 -3 2 -52z m123 2 c0
-30 -4 -55 -10 -55 -5 0 -10 25 -10 55 0 30 5 55 10 55 6 0 10 -25 10 -55z
m-40 16 c5 -11 10 -31 10 -44 0 -31 -45 -46 -68 -23 -19 19 -9 46 18 46 11 0
20 5 20 10 0 6 -12 8 -27 5 -27 -6 -27 -6 -9 9 26 21 43 20 56 -3z m120 0 c5
-11 10 -31 10 -44 0 -31 -45 -46 -68 -23 -19 19 -9 46 18 46 11 0 20 5 20 10
0 6 -12 8 -27 5 -27 -6 -27 -6 -9 9 26 21 43 20 56 -3z m90 -1 c15 -29 12 -70
-5 -70 -11 0 -15 11 -15 36 0 45 -24 42 -28 -4 -5 -48 -22 -39 -22 11 0 42 1
44 30 45 20 0 33 -6 40 -18z m85 7 c14 -11 15 -16 5 -22 -7 -4 -16 -2 -20 5
-4 7 -13 9 -19 6 -12 -8 -15 -46 -3 -46 28 1 51 15 56 35 7 28 41 42 61 25 17
-14 17 -77 -1 -84 -17 -6 -54 4 -54 15 0 5 -11 2 -24 -6 -33 -22 -66 -5 -66
33 0 47 29 64 65 39z m-325 -232 c0 -9 -18 -51 -40 -95 -30 -60 -45 -80 -60
-80 -11 0 -20 2 -20 5 0 3 16 37 35 75 l35 70 -45 0 c-31 0 -45 4 -45 13 0 23
11 27 77 27 50 0 63 -3 63 -15z m130 -10 c19 -20 24 -37 24 -77 0 -43 -4 -54
-28 -74 -35 -31 -61 -30 -91 1 -21 20 -25 34 -25 79 0 47 4 57 26 75 35 28 65
26 94 -4z m150 15 c25 -13 43 -73 36 -115 -9 -44 -51 -78 -86 -70 -40 9 -60
41 -60 97 0 75 53 118 110 88z m175 -15 c44 -43 30 -146 -22 -166 -61 -23
-111 33 -100 114 10 73 74 101 122 52z m160 0 c20 -19 25 -34 25 -75 0 -41 -5
-56 -25 -75 -29 -30 -54 -31 -88 -5 -32 25 -43 76 -27 124 19 60 73 74 115 31z
m226 -1 c19 -20 24 -36 24 -76 0 -42 -4 -53 -28 -74 -36 -31 -62 -30 -92 1
-21 20 -25 34 -25 79 0 47 4 57 26 75 36 28 65 26 95 -5z m144 20 c23 -9 45
-57 45 -99 0 -27 -8 -44 -29 -66 -36 -35 -64 -37 -96 -4 -20 19 -25 34 -25 75
0 74 46 116 105 94z m-282 -158 c7 -17 -18 -40 -33 -31 -5 3 -10 15 -10 26 0
23 35 27 43 5z m-743 -526 c9 -16 8 -20 -5 -20 -8 0 -15 5 -15 11 0 6 -10 9
-22 7 -18 -2 -23 -10 -23 -33 0 -23 5 -31 23 -33 12 -2 22 1 22 7 0 6 7 11 15
11 23 0 2 -36 -25 -43 -46 -12 -82 59 -50 98 18 22 67 19 80 -5z m93 -35 c18
-50 15 -73 -7 -42 -16 21 -42 22 -50 2 -9 -24 -28 -18 -20 7 17 55 36 89 47
85 7 -2 20 -25 30 -52z m102 10 c0 -22 4 -46 8 -52 5 -9 3 -13 -7 -13 -8 0
-20 9 -26 20 -6 11 -15 20 -20 20 -6 0 -10 -9 -10 -20 0 -11 -4 -20 -10 -20
-5 0 -10 25 -10 56 l0 55 38 -3 c36 -3 37 -4 37 -43z m103 33 c7 -7 12 -26 12
-43 0 -40 -16 -55 -57 -55 l-33 0 0 55 0 55 33 0 c18 0 38 -5 45 -12z m92 -8
c0 -15 7 -20 25 -20 18 0 25 5 25 20 0 11 5 20 10 20 6 0 10 -25 10 -55 0 -30
-4 -55 -10 -55 -5 0 -10 11 -10 25 0 20 -5 25 -25 25 -20 0 -25 -5 -25 -25 0
-14 -4 -25 -10 -25 -5 0 -10 25 -10 55 0 30 5 55 10 55 6 0 10 -9 10 -20z
m181 -4 c23 -51 -14 -101 -64 -88 -35 9 -45 83 -13 104 25 17 66 8 77 -16z
m39 -21 c0 -41 2 -45 24 -45 14 0 28 -4 31 -10 4 -6 -10 -10 -34 -10 l-41 0 0
55 c0 30 5 55 10 55 6 0 10 -20 10 -45z m148 33 c7 -7 12 -26 12 -43 0 -40
-16 -55 -57 -55 l-33 0 0 55 0 55 33 0 c18 0 38 -5 45 -12z m102 2 c0 -5 -11
-10 -25 -10 -14 0 -25 -4 -25 -10 0 -5 11 -10 25 -10 16 0 25 -6 25 -15 0 -9
-9 -15 -25 -15 -14 0 -25 -4 -25 -10 0 -5 11 -10 25 -10 14 0 25 -4 25 -10 0
-5 -16 -10 -35 -10 l-35 0 0 55 0 55 35 0 c19 0 35 -4 35 -10z m95 -47 c1 -56
-7 -66 -25 -33 -6 11 -15 20 -20 20 -6 0 -10 -9 -10 -20 0 -11 -4 -20 -10 -20
-5 0 -10 25 -10 56 l0 55 38 -3 37 -3 0 -52z m1096 20 l12 -38 12 35 c6 19 19
36 29 38 15 3 15 -1 -4 -50 -11 -29 -20 -54 -20 -55 0 -2 -7 -3 -15 -3 -13 0
-32 33 -49 88 -5 16 -3 22 8 22 8 0 20 -16 27 -37z m-1173 -285 c-3 -88 -4
-93 -25 -96 -16 -2 -23 2 -23 12 0 9 5 16 10 16 6 0 10 31 10 73 0 41 3 77 7
80 18 19 23 -1 21 -85z m1402 85 c0 -4 -9 -42 -21 -85 -17 -61 -25 -78 -39
-78 -18 0 -18 3 1 73 11 39 22 78 24 85 4 12 35 17 35 5z m-2340 -63 l0 -60
30 0 c17 0 30 -4 30 -10 0 -5 -20 -10 -45 -10 l-45 0 0 70 c0 56 3 70 15 70
12 0 15 -13 15 -60z m664 44 c9 -8 14 -20 11 -25 -8 -12 -35 -12 -35 1 0 6 -9
10 -20 10 -30 0 -24 -17 11 -29 18 -6 38 -19 45 -28 8 -11 13 -13 14 -5 0 6
11 12 24 12 14 0 28 5 32 11 4 8 -3 9 -26 4 -24 -5 -31 -4 -28 6 8 24 35 34
62 21 22 -10 26 -18 26 -56 0 -41 -2 -44 -32 -50 -20 -4 -39 -1 -52 8 -18 11
-24 11 -43 -1 -28 -19 -68 -10 -83 17 -9 17 -8 20 8 20 10 0 23 -5 29 -11 11
-11 33 -5 33 10 0 4 -16 13 -35 20 -37 13 -47 45 -23 69 17 17 64 15 82 -4z
m1476 -54 c0 -56 -3 -70 -15 -70 -11 0 -15 12 -15 49 0 44 -2 49 -20 44 -14
-4 -20 0 -20 10 0 18 26 36 53 37 15 0 17 -10 17 -70z m108 58 c19 -19 14 -44
-14 -77 l-26 -31 26 0 c14 0 26 -4 26 -10 0 -5 -22 -10 -50 -10 -59 0 -64 13
-20 55 32 31 39 55 15 55 -8 0 -15 -4 -15 -10 0 -5 -7 -10 -15 -10 -15 0 -21
31 -8 43 11 12 68 8 81 -5z m-2136 -60 c2 -24 8 -43 13 -43 6 0 11 19 13 43 2
28 8 42 18 42 10 0 14 -14 14 -55 0 -53 -1 -55 -27 -56 -62 -3 -73 6 -73 62 0
38 6 49 26 49 8 0 14 -16 16 -42z m168 22 c5 -10 10 -35 10 -54 0 -29 -4 -36
-20 -36 -17 0 -20 7 -20 41 0 52 -24 48 -28 -4 -2 -24 -8 -37 -18 -37 -10 0
-14 14 -14 54 l0 54 40 0 c29 1 43 -4 50 -18z m110 0 c11 -11 20 -29 20 -40 0
-22 -33 -60 -53 -60 -48 0 -74 65 -40 102 21 24 48 23 73 -2z m58 4 c8 -14 10
-14 21 0 13 15 41 22 41 11 0 -3 -7 -16 -16 -30 -14 -22 -14 -26 1 -49 17 -25
17 -26 -3 -26 -11 0 -22 5 -24 11 -3 8 -10 8 -25 -2 -29 -18 -38 -7 -19 23 13
20 13 25 0 42 -8 11 -14 23 -14 28 0 14 29 9 38 -8z m437 -1 c8 -8 15 -32 15
-54 0 -32 -3 -39 -20 -39 -17 0 -20 7 -20 41 0 52 -24 48 -28 -4 -2 -24 -8
-37 -18 -37 -10 0 -14 14 -14 54 l0 54 35 0 c20 0 42 -7 50 -15z m146 7 c14
-8 19 -21 19 -54 0 -41 -2 -44 -31 -50 -31 -6 -69 7 -69 24 0 24 14 40 35 40
13 0 27 5 31 11 4 8 -3 9 -25 4 -32 -7 -40 2 -19 23 15 15 33 15 59 2z m69
-22 l12 -33 9 33 c7 23 15 32 30 32 16 0 19 -4 14 -17 -4 -10 -16 -42 -27 -71
-20 -54 -33 -66 -64 -60 -17 3 -17 4 0 21 17 17 17 20 2 60 -20 52 -20 67 -2
67 8 0 19 -15 26 -32z m152 15 c11 -10 18 -30 18 -53 0 -35 -2 -38 -36 -43
-49 -8 -66 0 -62 32 2 17 10 27 23 29 11 2 25 8 30 14 7 7 -1 8 -22 3 -36 -7
-45 7 -15 24 25 15 43 13 64 -6z m-1158 -784 c29 -22 34 -51 12 -71 -11 -11
-11 -14 2 -24 19 -14 19 -61 0 -80 -26 -26 -80 -28 -111 -4 -15 12 -27 28 -27
36 0 19 34 18 50 -1 18 -22 55 -15 55 10 0 14 -8 21 -27 23 -35 4 -39 39 -6
44 13 2 24 11 26 21 5 24 -28 35 -43 14 -11 -16 -55 -24 -55 -11 0 16 24 46
43 54 35 14 52 12 81 -11z m494 -6 c15 -20 16 -59 2 -68 -7 -4 -5 -14 5 -28
21 -29 19 -50 -6 -73 -45 -40 -139 -12 -139 41 0 13 7 28 15 35 11 9 12 16 4
26 -18 22 -6 67 21 82 30 15 80 8 98 -15z m1638 6 c8 -6 14 -27 14 -45 0 -27
-9 -43 -41 -74 l-41 -40 41 0 c30 0 41 -4 41 -15 0 -12 -15 -15 -75 -15 -50 0
-75 4 -75 12 0 6 25 38 56 70 46 48 54 61 44 73 -18 21 -41 19 -47 -5 -3 -13
-14 -20 -29 -20 -32 0 -31 24 2 57 21 21 32 24 61 20 19 -3 41 -11 49 -18z
m-1946 -9 c0 -11 -18 -56 -40 -100 -34 -68 -44 -80 -65 -80 l-25 0 40 80 c22
44 40 82 40 85 0 3 -20 5 -45 5 -33 0 -45 4 -45 15 0 12 14 15 70 15 64 0 70
-2 70 -20z m160 0 c0 -11 -18 -56 -40 -100 -34 -68 -44 -80 -65 -80 l-25 0 40
80 c22 44 40 82 40 85 0 3 -20 5 -45 5 -33 0 -45 4 -45 15 0 12 14 15 70 15
64 0 70 -2 70 -20z m330 4 c0 -13 3 -14 15 -4 12 10 16 9 22 -6 4 -11 2 -19
-6 -22 -9 -3 -9 -7 -1 -18 15 -17 4 -35 -15 -27 -9 3 -15 -1 -15 -11 0 -9 -7
-16 -15 -16 -9 0 -15 9 -15 21 0 18 -2 20 -16 8 -13 -10 -17 -10 -24 1 -6 9
-3 18 7 25 14 11 14 12 -2 19 -14 5 -15 9 -5 21 10 12 16 13 26 4 11 -9 14 -8
14 5 0 9 7 16 15 16 8 0 15 -7 15 -16z m150 5 c0 -6 6 -9 14 -6 8 3 17 -1 20
-9 3 -8 -1 -17 -10 -21 -15 -5 -15 -7 -1 -15 19 -10 11 -42 -8 -34 -8 3 -16
-2 -19 -10 -7 -19 -36 -18 -36 2 0 10 -6 14 -15 11 -21 -9 -31 14 -11 28 14
11 15 13 1 18 -8 4 -12 13 -9 21 3 8 12 12 20 9 8 -3 14 0 14 6 0 6 9 11 20
11 11 0 20 -5 20 -11z m140 -5 c0 -13 3 -14 15 -4 12 10 16 9 22 -6 4 -11 2
-19 -6 -22 -9 -3 -9 -7 -1 -18 15 -17 4 -35 -15 -27 -9 3 -15 -1 -15 -11 0 -9
-7 -16 -15 -16 -9 0 -15 9 -15 21 0 18 -2 20 -16 8 -13 -10 -17 -10 -24 1 -6
9 -3 18 7 25 14 11 14 12 -2 19 -14 5 -15 9 -5 21 10 12 16 13 26 4 11 -9 14
-8 14 5 0 9 7 16 15 16 8 0 15 -7 15 -16z m150 6 c0 -5 6 -7 14 -4 7 3 16 -2
20 -11 3 -9 -1 -18 -10 -22 -15 -5 -15 -7 -1 -15 19 -10 11 -42 -8 -34 -8 3
-16 -2 -19 -10 -7 -19 -36 -18 -36 2 0 10 -6 14 -15 11 -19 -8 -30 10 -15 27
8 11 8 15 -1 18 -7 2 -10 11 -6 21 4 10 12 14 22 11 8 -3 15 -1 15 5 0 6 9 11
20 11 11 0 20 -4 20 -10z m210 0 c0 -5 6 -7 14 -4 7 3 16 -2 20 -11 3 -9 -1
-18 -10 -22 -15 -5 -15 -7 -1 -15 19 -10 11 -42 -8 -34 -8 3 -16 -2 -19 -10
-7 -19 -36 -18 -36 2 0 10 -6 14 -15 11 -19 -8 -30 10 -15 27 8 11 8 15 -1 18
-7 2 -10 11 -6 21 4 10 12 14 22 11 8 -3 15 -1 15 5 0 6 9 11 20 11 11 0 20
-4 20 -10z m140 -1 c0 -6 7 -8 15 -5 10 3 18 -1 22 -11 4 -10 1 -19 -6 -21 -9
-3 -9 -7 -1 -18 15 -17 4 -35 -15 -27 -9 3 -15 -1 -15 -11 0 -9 -7 -16 -15
-16 -9 0 -15 9 -15 21 0 18 -2 20 -16 8 -13 -10 -17 -10 -25 2 -6 9 -4 18 5
25 12 9 12 11 0 20 -9 6 -11 14 -5 23 8 12 12 12 25 2 13 -11 16 -11 16 3 0 9
7 16 15 16 8 0 15 -5 15 -11z m150 1 c0 -5 6 -7 14 -4 7 3 16 -2 20 -11 3 -9
-1 -18 -10 -22 -15 -5 -15 -7 -1 -15 19 -10 10 -41 -9 -34 -8 3 -14 -1 -14 -9
0 -8 -9 -15 -20 -15 -11 0 -20 7 -20 15 0 8 -6 12 -14 9 -19 -7 -30 14 -16 30
8 11 8 15 -1 18 -7 2 -10 11 -6 21 4 10 12 14 22 11 8 -3 15 -1 15 5 0 6 9 11
20 11 11 0 20 -4 20 -10z m140 -1 c0 -6 7 -8 15 -5 10 3 18 -1 22 -11 4 -10 1
-19 -6 -21 -9 -3 -9 -7 -1 -18 15 -17 4 -35 -15 -27 -9 3 -15 -1 -15 -11 0 -9
-7 -16 -15 -16 -8 0 -15 7 -15 16 0 10 -6 13 -19 9 -23 -7 -38 23 -16 32 14 5
14 7 0 17 -10 7 -12 16 -6 25 8 12 12 12 25 2 13 -11 16 -11 16 3 0 9 7 16 15
16 8 0 15 -5 15 -11z m220 -89 c0 -93 -1 -100 -20 -100 -18 0 -20 7 -20 75 0
68 -9 91 -25 65 -11 -17 -25 -11 -25 11 0 27 27 48 63 49 l27 0 0 -100z"/>
<path d="M11830 12400 c0 -5 9 -10 20 -10 11 0 20 5 20 10 0 6 -9 10 -20 10
-11 0 -20 -4 -20 -10z"/>
<path d="M11830 12356 c0 -10 9 -16 21 -16 24 0 21 23 -4 28 -10 2 -17 -3 -17
-12z"/>
<path d="M11925 12340 c4 -6 11 -8 16 -5 14 9 11 15 -7 15 -8 0 -12 -5 -9 -10z"/>
<path d="M12045 12340 c4 -6 11 -8 16 -5 14 9 11 15 -7 15 -8 0 -12 -5 -9 -10z"/>
<path d="M12315 12380 c-3 -5 1 -10 10 -10 9 0 13 5 10 10 -3 6 -8 10 -10 10
-2 0 -7 -4 -10 -10z"/>
<path d="M12315 12340 c4 -6 11 -8 16 -5 14 9 11 15 -7 15 -8 0 -12 -5 -9 -10z"/>
<path d="M11996 12125 c-8 -21 -8 -69 0 -89 3 -9 15 -16 25 -16 22 0 32 31 27
81 -2 26 -8 35 -24 37 -13 2 -24 -4 -28 -13z"/>
<path d="M12156 12125 c-11 -30 -6 -82 9 -95 33 -27 61 21 46 79 -8 30 -45 41
-55 16z"/>
<path d="M12321 12121 c-15 -27 -14 -63 3 -86 17 -24 43 -14 52 21 14 57 -31
110 -55 65z"/>
<path d="M12481 12118 c-11 -31 -2 -88 15 -95 34 -13 57 51 38 101 -9 24 -43
19 -53 -6z"/>
<path d="M12706 12125 c-8 -21 -8 -69 0 -89 3 -9 15 -16 25 -16 22 0 32 31 27
81 -2 26 -8 35 -24 37 -13 2 -24 -4 -28 -13z"/>
<path d="M12866 12125 c-16 -42 1 -105 28 -105 20 0 36 53 27 87 -8 32 -45 44
-55 18z"/>
<path d="M11955 11460 c-3 -5 -1 -10 4 -10 6 0 11 5 11 10 0 6 -2 10 -4 10 -3
0 -8 -4 -11 -10z"/>
<path d="M12040 11475 c0 -8 9 -15 20 -15 11 0 20 7 20 15 0 8 -9 15 -20 15
-11 0 -20 -7 -20 -15z"/>
<path d="M12140 11455 c0 -32 3 -36 23 -33 17 2 22 10 22 33 0 23 -5 31 -22
33 -20 3 -23 -1 -23 -33z"/>
<path d="M12404 11476 c-10 -26 1 -51 22 -54 24 -3 38 20 29 49 -7 22 -43 25
-51 5z"/>
<path d="M12600 11455 c0 -32 3 -36 23 -33 17 2 22 10 22 33 0 23 -5 31 -22
33 -20 3 -23 -1 -23 -33z"/>
<path d="M12800 11474 c0 -9 7 -14 17 -12 25 5 28 28 4 28 -12 0 -21 -6 -21
-16z"/>
<path d="M12560 11160 c0 -5 4 -10 9 -10 6 0 13 5 16 10 3 6 -1 10 -9 10 -9 0
-16 -4 -16 -10z"/>
<path d="M12175 11200 c-9 -15 5 -52 18 -47 15 5 16 49 0 54 -6 2 -14 -1 -18
-7z"/>
<path d="M12830 11160 c0 -5 4 -10 9 -10 6 0 13 5 16 10 3 6 -1 10 -9 10 -9 0
-16 -4 -16 -10z"/>
<path d="M13040 11160 c0 -5 4 -10 9 -10 6 0 13 5 16 10 3 6 -1 10 -9 10 -9 0
-16 -4 -16 -10z"/>
<path d="M12346 10411 c-9 -14 4 -41 19 -41 17 0 38 27 30 40 -8 12 -42 13
-49 1z"/>
<path d="M12344 10315 c-4 -9 -2 -21 4 -27 16 -16 47 -5 47 17 0 26 -42 34
-51 10z"/>
<path d="M2957 12583 c-5 -45 8 -66 21 -32 24 63 24 69 4 69 -15 0 -21 -9 -25
-37z"/>
<path d="M642 12268 c-30 -82 -34 -98 -24 -98 5 0 12 9 15 20 4 15 14 20 37
20 23 0 33 -5 37 -20 3 -11 10 -20 15 -20 6 0 8 6 5 13 -2 6 -14 40 -27 75
-12 34 -26 62 -31 62 -4 0 -16 -24 -27 -52z m43 -15 c5 -19 2 -23 -14 -23 -23
0 -24 3 -15 38 7 26 18 20 29 -15z"/>
<path d="M1043 12303 c-4 -10 -11 -21 -17 -25 -8 -6 -7 -10 1 -16 6 -4 13 -28
16 -52 l4 -45 1 48 c2 34 6 47 17 47 20 0 19 18 -2 22 -15 3 -15 4 1 21 15 15
16 17 1 17 -8 0 -19 -8 -22 -17z"/>
<path d="M1155 12310 c-4 -6 5 -10 19 -10 25 0 26 -2 26 -65 0 -37 4 -65 10
-65 6 0 10 28 10 65 0 58 2 65 20 65 11 0 20 5 20 10 0 6 -22 10 -49 10 -28 0
-53 -4 -56 -10z"/>
<path d="M1627 12313 c-11 -10 -8 -143 3 -143 6 0 10 26 11 58 l0 57 22 -58
c11 -31 25 -56 31 -54 5 2 19 28 30 58 l21 54 6 -60 6 -60 1 78 c1 42 -2 77
-7 77 -5 0 -19 -28 -32 -62 l-23 -62 -27 62 c-29 64 -31 67 -42 55z"/>
<path d="M2097 12307 c-26 -18 -33 -81 -13 -112 22 -34 62 -34 78 1 16 35 0
59 -41 59 -32 0 -35 3 -25 29 7 19 35 21 52 4 6 -6 14 -9 17 -6 8 8 -23 38
-39 38 -7 0 -20 -6 -29 -13z m51 -88 c4 -30 -22 -46 -44 -28 -17 14 -18 31 -2
47 19 19 43 9 46 -19z"/>
<path d="M2315 12304 c-9 -9 -13 -19 -10 -22 3 -3 11 0 17 6 7 7 20 12 30 12
30 0 21 -43 -17 -80 -19 -19 -35 -38 -35 -42 0 -4 20 -8 45 -8 25 0 45 5 45
10 0 6 -14 10 -31 10 l-31 0 31 35 c35 40 38 57 15 79 -20 20 -38 20 -59 0z"/>
<path d="M2440 12300 c-25 -25 -27 -91 -4 -114 36 -37 84 -2 84 61 0 32 -28
73 -50 73 -5 0 -19 -9 -30 -20z m54 -16 c11 -30 6 -82 -10 -95 -14 -11 -19
-10 -35 10 -22 26 -23 39 -9 75 11 29 44 35 54 10z"/>
<path d="M2568 12309 c-10 -5 -18 -18 -18 -27 1 -15 2 -15 15 1 16 22 48 19
53 -5 2 -9 -13 -34 -32 -56 -20 -22 -36 -42 -36 -46 0 -3 20 -6 45 -6 25 0 45
5 45 10 0 6 -14 10 -31 10 l-31 0 31 35 c35 40 38 57 15 79 -18 18 -32 20 -56
5z"/>
<path d="M2676 12304 c-3 -9 -6 -26 -6 -39 0 -20 5 -23 33 -21 28 1 32 -3 35
-25 4 -34 -24 -46 -49 -23 -17 16 -19 16 -19 1 0 -18 41 -33 65 -24 8 4 17 18
21 33 5 21 2 31 -15 45 -12 10 -29 15 -36 12 -10 -3 -15 2 -15 16 0 17 6 21
30 21 17 0 30 5 30 10 0 17 -67 12 -74 -6z"/>
<path d="M3105 12268 c-19 -29 -35 -56 -35 -60 0 -5 16 -8 35 -8 24 0 35 -5
35 -15 0 -8 5 -15 10 -15 6 0 10 7 10 15 0 8 5 15 12 15 9 0 9 3 0 12 -7 7
-12 31 -12 54 0 24 -4 45 -10 49 -5 3 -25 -18 -45 -47z m35 -13 c0 -31 -3 -35
-25 -35 l-25 0 22 35 c13 19 24 35 26 35 1 0 2 -16 2 -35z"/>
<path d="M3277 12302 c-19 -21 -22 -83 -7 -113 13 -23 53 -25 71 -2 22 25 18
102 -5 119 -26 19 -40 18 -59 -4z m57 -18 c11 -28 6 -81 -8 -93 -34 -29 -71
41 -47 88 14 25 46 28 55 5z"/>
<path d="M3407 12307 c-26 -18 -33 -81 -13 -112 22 -34 62 -34 78 1 16 35 0
59 -41 59 -32 0 -35 3 -25 29 7 19 35 21 52 4 6 -6 14 -9 17 -6 8 8 -23 38
-39 38 -7 0 -20 -6 -29 -13z m51 -88 c4 -30 -22 -46 -44 -28 -17 14 -18 31 -2
47 19 19 43 9 46 -19z"/>
<path d="M3571 12243 c1 -43 4 -66 6 -50 3 19 10 27 24 27 37 0 59 19 59 51 0
31 -26 49 -71 49 -17 0 -19 -7 -18 -77z m74 37 c9 -28 -2 -40 -36 -40 -26 0
-29 3 -29 30 0 27 3 30 29 30 21 0 32 -6 36 -20z"/>
<path d="M3697 12313 c-11 -10 -8 -143 3 -143 6 0 10 26 10 58 l1 57 23 -55
c12 -30 26 -55 31 -55 5 0 19 25 31 55 l23 55 1 -57 c0 -33 4 -58 10 -58 7 0
10 27 8 73 -4 96 -15 96 -56 -3 l-18 -45 -19 53 c-20 54 -37 77 -48 65z"/>
<path d="M2953 12285 c-6 -7 -8 -16 -3 -21 5 -5 10 -27 12 -49 2 -31 7 -40 23
-43 18 -2 18 -2 3 8 -11 7 -18 23 -18 42 0 18 7 36 18 44 15 12 15 13 0 14 -9
0 -18 4 -20 9 -1 5 -8 3 -15 -4z"/>
<path d="M3210 12280 c0 -5 5 -10 10 -10 6 0 10 5 10 10 0 6 -4 10 -10 10 -5
0 -10 -4 -10 -10z"/>
<path d="M760 12265 c-16 -19 0 -40 35 -49 14 -4 25 -10 25 -15 0 -14 -32 -23
-44 -11 -16 16 -30 12 -16 -6 8 -8 25 -14 39 -12 36 4 37 49 2 58 -14 3 -26
10 -28 17 -5 14 24 25 32 13 4 -6 11 -10 17 -10 7 0 6 6 -2 15 -7 8 -20 15
-30 15 -10 0 -23 -7 -30 -15z"/>
<path d="M926 12265 c-32 -32 -12 -95 29 -95 15 0 31 10 42 26 15 24 15 29 2
53 -17 31 -50 38 -73 16z m62 -36 c3 -30 -18 -52 -42 -43 -16 6 -23 54 -9 68
16 16 48 1 51 -25z"/>
<path d="M1278 12274 c-11 -11 -10 -62 2 -84 7 -14 20 -19 45 -18 l35 1 0 54
c0 34 -4 52 -10 48 -5 -3 -10 -23 -10 -45 0 -38 -16 -55 -38 -41 -6 3 -12 26
-14 50 -2 23 -6 39 -10 35z"/>
<path d="M1402 12268 c-7 -7 -12 -26 -12 -43 0 -17 5 -36 12 -43 17 -17 53
-15 68 3 15 18 7 19 -19 3 -15 -9 -23 -9 -35 1 -26 22 -19 31 24 31 41 0 47 8
30 41 -12 21 -50 25 -68 7z m58 -23 c0 -16 -45 -21 -54 -6 -8 12 4 21 31 21
14 0 23 -6 23 -15z"/>
<path d="M1813 12273 c-26 -10 -12 -22 18 -16 25 5 31 3 27 -8 -2 -8 -14 -15
-26 -17 -59 -9 -46 -62 14 -60 33 1 34 2 34 43 0 56 -23 76 -67 58z m47 -68
c0 -9 -7 -18 -16 -22 -18 -7 -39 11 -30 26 11 17 46 13 46 -4z"/>
<path d="M1905 12260 c4 -14 14 -40 21 -59 13 -30 12 -36 -2 -53 -15 -16 -15
-18 -2 -18 15 0 68 112 68 142 0 21 -17 -5 -30 -47 l-13 -40 -14 40 c-16 45
-40 76 -28 35z"/>
<path d="M2853 12273 c-25 -10 -12 -22 17 -16 23 4 30 2 30 -10 0 -10 -11 -17
-27 -19 -22 -2 -28 -8 -28 -28 0 -22 5 -25 38 -27 l37 -1 0 42 c0 57 -23 77
-67 59z m47 -68 c0 -9 -7 -18 -16 -22 -18 -7 -39 11 -30 26 11 17 46 13 46 -4z"/>
<path d="M3210 12200 c0 -5 5 -10 10 -10 6 0 10 5 10 10 0 6 -4 10 -10 10 -5
0 -10 -4 -10 -10z"/>
<path d="M1510 12165 c-6 -15 -8 -30 -6 -33 3 -3 10 8 16 23 6 15 8 30 6 33
-3 3 -10 -8 -16 -23z"/>
<path d="M2197 12184 c-4 -4 -7 -19 -6 -33 l0 -26 10 24 c10 26 8 47 -4 35z"/>
<path d="M1428 10976 c-22 -16 -23 -27 -3 -20 12 5 15 -5 15 -55 0 -34 4 -61
10 -61 6 0 10 32 10 75 0 41 -3 75 -7 75 -5 0 -16 -7 -25 -14z"/>
<path d="M1508 10976 c-22 -16 -23 -27 -3 -20 12 5 15 -5 15 -55 0 -34 4 -61
10 -61 6 0 10 32 10 75 0 41 -3 75 -7 75 -5 0 -16 -7 -25 -14z"/>
<path d="M2915 10980 c-4 -6 5 -10 19 -10 25 0 26 -2 26 -65 0 -37 4 -65 10
-65 6 0 10 28 10 65 0 58 2 65 20 65 11 0 20 5 20 10 0 6 -22 10 -49 10 -28 0
-53 -4 -56 -10z"/>
<path d="M3455 10970 c-3 -11 -11 -20 -18 -20 -8 0 -8 -3 1 -12 7 -7 12 -31
12 -55 0 -24 5 -43 10 -43 6 0 10 20 10 44 0 26 5 46 13 49 9 4 8 8 -3 16 -13
10 -12 13 4 26 19 15 19 15 -1 15 -13 0 -24 -8 -28 -20z"/>
<path d="M5695 10980 c-3 -6 5 -10 19 -10 24 0 25 -3 29 -67 l3 -68 2 68 c2
64 3 67 27 67 14 0 25 5 25 10 0 6 -22 10 -49 10 -28 0 -53 -4 -56 -10z"/>
<path d="M6000 10960 c0 -16 -5 -19 -24 -14 -43 10 -70 -40 -46 -87 8 -14 20
-18 50 -17 l40 1 0 69 c0 39 -4 68 -10 68 -5 0 -10 -9 -10 -20z m-2 -61 c3
-30 -18 -52 -42 -43 -16 6 -23 54 -9 68 16 16 48 1 51 -25z"/>
<path d="M3042 10890 c1 -52 2 -52 5 -11 3 32 9 44 24 48 27 8 24 21 -6 19
-24 -1 -25 -4 -23 -56z"/>
<path d="M3123 10943 c-25 -10 -12 -22 17 -16 23 4 30 2 30 -10 0 -10 -11 -17
-27 -19 -22 -2 -28 -8 -28 -28 0 -22 5 -25 38 -27 l37 -1 0 42 c0 57 -23 77
-67 59z m47 -68 c0 -9 -7 -18 -16 -22 -18 -7 -39 11 -30 26 11 17 46 13 46 -4z"/>
<path d="M3220 10893 c0 -29 5 -53 10 -53 6 0 10 20 10 45 0 41 2 45 25 45 23
0 25 -4 25 -45 0 -25 5 -45 10 -45 13 0 13 66 0 90 -7 14 -20 19 -45 18 l-35
-1 0 -54z"/>
<path d="M3353 10944 c-25 -11 -14 -45 17 -55 17 -6 30 -15 30 -20 0 -17 -30
-22 -47 -8 -14 12 -16 12 -11 -1 6 -21 52 -24 68 -6 16 20 1 41 -36 50 -21 6
-24 9 -14 21 9 11 17 12 32 4 16 -9 19 -8 16 3 -5 14 -35 20 -55 12z"/>
<path d="M3522 10938 c-7 -7 -12 -26 -12 -43 0 -17 5 -36 12 -43 17 -17 53
-15 68 3 15 18 7 19 -19 3 -15 -9 -23 -9 -35 1 -26 22 -19 31 24 31 41 0 47 8
30 41 -12 21 -50 25 -68 7z m58 -23 c0 -10 -10 -15 -30 -15 -29 0 -38 9 -23
23 13 13 53 7 53 -8z"/>
<path d="M3632 10890 c1 -52 2 -52 5 -11 3 32 9 44 24 48 27 8 24 21 -6 19
-24 -1 -25 -4 -23 -56z"/>
<path d="M5823 10938 c-32 -41 -14 -98 30 -98 31 0 47 18 47 51 0 47 -52 78
-77 47z m62 -28 c7 -23 -10 -60 -28 -60 -29 0 -50 53 -30 73 14 15 52 6 58
-13z"/>
<path d="M6063 10943 c-26 -10 -12 -22 18 -16 25 5 31 3 27 -8 -2 -8 -14 -15
-26 -17 -59 -9 -46 -62 14 -60 33 1 34 2 34 43 0 56 -23 76 -67 58z m47 -68
c0 -9 -7 -18 -16 -22 -18 -7 -39 11 -30 26 11 17 46 13 46 -4z"/>
<path d="M6155 10930 c4 -14 14 -40 21 -59 13 -30 12 -36 -2 -53 -15 -16 -15
-18 -1 -18 10 0 24 24 41 68 14 37 26 72 26 77 0 18 -18 -11 -30 -50 l-13 -40
-14 40 c-16 45 -40 76 -28 35z"/>
<path d="M1399 10360 c-13 -11 -19 -19 -13 -20 5 0 15 5 22 12 9 9 12 -3 12
-55 0 -38 4 -67 10 -67 12 0 13 137 1 144 -5 3 -20 -3 -32 -14z"/>
<path d="M1490 10360 c-25 -25 -27 -91 -4 -114 40 -41 91 5 81 72 -6 33 -28
62 -49 62 -4 0 -17 -9 -28 -20z m54 -16 c11 -30 6 -82 -10 -95 -14 -11 -19
-10 -35 10 -22 26 -23 39 -9 75 11 29 44 35 54 10z"/>
<path d="M2915 10370 c-4 -6 5 -10 19 -10 25 0 26 -2 26 -65 0 -37 4 -65 10
-65 6 0 10 28 10 65 0 58 2 65 20 65 11 0 20 5 20 10 0 6 -22 10 -49 10 -28 0
-53 -4 -56 -10z"/>
<path d="M3455 10360 c-3 -11 -11 -20 -18 -20 -8 0 -8 -3 1 -12 7 -7 12 -31
12 -55 0 -24 5 -43 10 -43 6 0 10 20 10 44 0 26 5 46 13 49 9 4 8 8 -3 16 -13
10 -12 13 4 26 19 15 19 15 -1 15 -13 0 -24 -8 -28 -20z"/>
<path d="M5695 10370 c-3 -6 5 -10 19 -10 24 0 25 -3 29 -67 l3 -68 2 68 c2
64 3 67 27 67 14 0 25 5 25 10 0 6 -22 10 -49 10 -28 0 -53 -4 -56 -10z"/>
<path d="M6000 10350 c0 -16 -5 -19 -24 -14 -43 10 -70 -40 -46 -87 8 -14 20
-18 50 -17 l40 1 0 69 c0 39 -4 68 -10 68 -5 0 -10 -9 -10 -20z m-2 -61 c3
-30 -18 -52 -42 -43 -16 6 -23 54 -9 68 16 16 48 1 51 -25z"/>
<path d="M3042 10280 c1 -52 2 -52 5 -11 3 32 9 44 24 48 27 8 24 21 -6 19
-24 -1 -25 -4 -23 -56z"/>
<path d="M3123 10333 c-25 -10 -12 -22 17 -16 23 4 30 2 30 -10 0 -10 -11 -17
-27 -19 -22 -2 -28 -8 -28 -28 0 -22 5 -25 38 -27 l37 -1 0 42 c0 57 -23 77
-67 59z m47 -68 c0 -9 -7 -18 -16 -22 -18 -7 -39 11 -30 26 11 17 46 13 46 -4z"/>
<path d="M3220 10283 c0 -29 5 -53 10 -53 6 0 10 20 10 45 0 41 2 45 25 45 23
0 25 -4 25 -45 0 -25 5 -45 10 -45 13 0 13 66 0 90 -7 14 -20 19 -45 18 l-35
-1 0 -54z"/>
<path d="M3353 10334 c-25 -11 -14 -45 17 -55 17 -6 30 -15 30 -20 0 -17 -30
-22 -47 -8 -14 12 -16 12 -11 -1 6 -21 52 -24 68 -6 16 20 1 41 -36 50 -21 6
-24 9 -14 21 9 11 17 12 32 4 16 -9 19 -8 16 3 -5 14 -35 20 -55 12z"/>
<path d="M3522 10328 c-7 -7 -12 -26 -12 -43 0 -17 5 -36 12 -43 17 -17 53
-15 68 3 15 18 7 19 -19 3 -15 -9 -23 -9 -35 1 -26 22 -19 31 24 31 41 0 47 8
30 41 -12 21 -50 25 -68 7z m58 -23 c0 -10 -10 -15 -30 -15 -29 0 -38 9 -23
23 13 13 53 7 53 -8z"/>
<path d="M3632 10280 c1 -52 2 -52 5 -11 3 32 9 44 24 48 27 8 24 21 -6 19
-24 -1 -25 -4 -23 -56z"/>
<path d="M5823 10328 c-32 -41 -14 -98 30 -98 31 0 47 18 47 51 0 47 -52 78
-77 47z m62 -28 c7 -23 -10 -60 -28 -60 -29 0 -50 53 -30 73 14 15 52 6 58
-13z"/>
<path d="M6063 10333 c-26 -10 -12 -22 18 -16 25 5 31 3 27 -8 -2 -8 -14 -15
-26 -17 -59 -9 -46 -62 14 -60 33 1 34 2 34 43 0 56 -23 76 -67 58z m47 -68
c0 -9 -7 -18 -16 -22 -18 -7 -39 11 -30 26 11 17 46 13 46 -4z"/>
<path d="M6155 10320 c4 -14 14 -40 21 -59 13 -30 12 -36 -2 -53 -15 -16 -15
-18 -1 -18 10 0 24 24 41 68 14 37 26 72 26 77 0 18 -18 -11 -30 -50 l-13 -40
-14 40 c-16 45 -40 76 -28 35z"/>
<path d="M14208 10243 c7 -3 16 -2 19 1 4 3 -2 6 -13 5 -11 0 -14 -3 -6 -6z"/>
<path d="M1452 9754 c-41 -29 -14 -92 34 -80 26 7 33 -11 12 -32 -16 -16 -23
-15 -43 5 -16 16 -17 15 -13 -3 5 -29 52 -31 72 -2 22 31 20 84 -4 108 -24 24
-29 24 -58 4z m53 -34 c0 -18 -6 -26 -23 -28 -13 -2 -25 3 -28 12 -10 26 4 48
28 44 17 -2 23 -10 23 -28z"/>
<path d="M2915 9760 c-4 -6 5 -10 19 -10 25 0 26 -2 26 -65 0 -37 4 -65 10
-65 6 0 10 28 10 65 0 58 2 65 20 65 11 0 20 5 20 10 0 6 -22 10 -49 10 -28 0
-53 -4 -56 -10z"/>
<path d="M3455 9750 c-3 -11 -11 -20 -18 -20 -8 0 -8 -3 1 -12 7 -7 12 -31 12
-55 0 -24 5 -43 10 -43 6 0 10 20 10 44 0 26 5 46 13 49 9 4 8 8 -3 16 -13 10
-12 13 4 26 19 15 19 15 -1 15 -13 0 -24 -8 -28 -20z"/>
<path d="M5489 9750 c-13 -11 -19 -19 -13 -20 5 0 15 5 22 12 9 9 12 -3 12
-55 0 -38 4 -67 10 -67 12 0 13 137 1 144 -5 3 -20 -3 -32 -14z"/>
<path d="M5569 9750 c-13 -11 -19 -19 -13 -20 5 0 15 5 22 12 9 9 12 -3 12
-55 0 -38 4 -67 10 -67 12 0 13 137 1 144 -5 3 -20 -3 -32 -14z"/>
<path d="M5677 9763 c-11 -17 -45 -163 -38 -163 8 0 52 162 47 168 -2 2 -6 0
-9 -5z"/>
<path d="M5728 9756 c-22 -16 -23 -27 -3 -20 12 5 15 -5 15 -55 0 -34 4 -61
10 -61 6 0 10 32 10 75 0 41 -3 75 -7 75 -5 0 -16 -7 -25 -14z"/>
<path d="M5812 9754 c-41 -29 -14 -92 34 -80 26 7 33 -11 12 -32 -16 -16 -23
-15 -43 5 -16 16 -17 15 -13 -3 5 -29 52 -31 72 -2 22 31 20 84 -4 108 -24 24
-29 24 -58 4z m53 -34 c0 -18 -6 -26 -23 -28 -24 -4 -38 18 -28 44 3 9 15 14
28 12 17 -2 23 -10 23 -28z"/>
<path d="M5930 9689 c-24 -91 -21 -121 4 -35 21 71 30 116 23 116 -2 0 -15
-36 -27 -81z"/>
<path d="M6004 9756 c-10 -8 -15 -18 -11 -22 4 -5 12 -2 16 5 11 17 45 10 49
-11 2 -9 -13 -34 -32 -56 -20 -22 -36 -42 -36 -46 0 -3 20 -6 45 -6 25 0 45 5
45 10 0 6 -14 10 -31 10 l-31 0 31 35 c35 40 38 57 15 79 -19 20 -35 20 -60 2z"/>
<path d="M6127 9752 c-19 -21 -22 -83 -7 -113 12 -22 52 -25 69 -6 18 23 24
73 11 98 -23 43 -47 50 -73 21z m57 -18 c16 -41 1 -104 -25 -104 -16 0 -39 33
-39 56 0 53 48 89 64 48z"/>
<path d="M6258 9759 c-10 -5 -18 -18 -18 -27 1 -16 1 -16 11 1 5 9 19 17 30
17 34 0 33 -28 -5 -72 -20 -23 -36 -45 -36 -50 0 -4 21 -8 46 -8 27 0 43 4 39
10 -3 6 -18 10 -32 10 l-25 0 26 34 c31 41 33 71 7 86 -23 12 -22 12 -43 -1z"/>
<path d="M6385 9718 c-19 -29 -35 -56 -35 -60 0 -5 16 -8 35 -8 24 0 35 -5 35
-15 0 -8 5 -15 10 -15 6 0 10 7 10 15 0 8 5 15 12 15 9 0 9 3 0 12 -7 7 -12
31 -12 54 0 24 -4 45 -10 49 -5 3 -25 -18 -45 -47z m35 -13 c0 -31 -3 -35 -25
-35 l-25 0 22 35 c13 19 24 35 26 35 1 0 2 -16 2 -35z"/>
<path d="M3042 9670 c1 -52 2 -52 5 -11 3 32 9 44 24 48 27 8 24 21 -6 19 -24
-1 -25 -4 -23 -56z"/>
<path d="M3123 9723 c-25 -10 -12 -22 17 -16 23 4 30 2 30 -10 0 -10 -11 -17
-27 -19 -22 -2 -28 -8 -28 -28 0 -22 5 -25 38 -27 l37 -1 0 42 c0 57 -23 77
-67 59z m47 -68 c0 -9 -7 -18 -16 -22 -18 -7 -39 11 -30 26 11 17 46 13 46 -4z"/>
<path d="M3220 9673 c0 -29 5 -53 10 -53 6 0 10 20 10 45 0 41 2 45 25 45 23
0 25 -4 25 -45 0 -25 5 -45 10 -45 13 0 13 66 0 90 -7 14 -20 19 -45 18 l-35
-1 0 -54z"/>
<path d="M3353 9724 c-25 -11 -14 -45 17 -55 17 -6 30 -15 30 -20 0 -17 -30
-22 -47 -8 -14 12 -16 12 -11 -1 6 -21 52 -24 68 -6 16 20 1 41 -36 50 -21 6
-24 9 -14 21 9 11 17 12 32 4 16 -9 19 -8 16 3 -5 14 -35 20 -55 12z"/>
<path d="M3522 9718 c-7 -7 -12 -26 -12 -43 0 -17 5 -36 12 -43 17 -17 53 -15
68 3 15 18 7 19 -19 3 -15 -9 -23 -9 -35 1 -26 22 -19 31 24 31 41 0 47 8 30
41 -12 21 -50 25 -68 7z m58 -23 c0 -10 -10 -15 -30 -15 -29 0 -38 9 -23 23
13 13 53 7 53 -8z"/>
<path d="M3632 9670 c1 -52 2 -52 5 -11 3 32 9 44 24 48 27 8 24 21 -6 19 -24
-1 -25 -4 -23 -56z"/>
<path d="M1455 9146 c-12 -9 -16 -20 -12 -36 3 -12 0 -31 -6 -41 -18 -29 3
-54 43 -54 40 0 61 25 43 54 -6 10 -9 29 -6 41 6 21 -16 50 -37 50 -3 0 -14
-6 -25 -14z m51 -17 c3 -6 -1 -18 -10 -27 -15 -15 -17 -15 -32 0 -19 19 -11
38 16 38 10 0 22 -5 26 -11z m2 -75 c3 -23 -18 -37 -43 -28 -18 7 -20 40 -2
47 23 10 42 2 45 -19z"/>
<path d="M2915 9150 c-4 -6 5 -10 19 -10 25 0 26 -2 26 -65 0 -37 4 -65 10
-65 6 0 10 28 10 65 0 58 2 65 20 65 11 0 20 5 20 10 0 6 -22 10 -49 10 -28 0
-53 -4 -56 -10z"/>
<path d="M3455 9140 c-3 -11 -11 -20 -18 -20 -8 0 -8 -3 1 -12 7 -7 12 -31 12
-55 0 -24 5 -43 10 -43 6 0 10 20 10 44 0 26 5 46 13 49 9 4 8 8 -3 16 -13 10
-12 13 4 26 19 15 19 15 -1 15 -13 0 -24 -8 -28 -20z"/>
<path d="M5498 9146 c-22 -16 -23 -27 -3 -20 12 5 15 -5 15 -55 0 -34 4 -61
10 -61 6 0 10 32 10 75 0 41 -3 75 -7 75 -5 0 -16 -7 -25 -14z"/>
<path d="M5578 9146 c-22 -16 -23 -27 -3 -20 12 5 15 -5 15 -55 0 -34 4 -61
10 -61 6 0 10 32 10 75 0 41 -3 75 -7 75 -5 0 -16 -7 -25 -14z"/>
<path d="M5666 9106 c-21 -72 -31 -123 -22 -114 10 8 48 159 42 165 -2 2 -11
-20 -20 -51z"/>
<path d="M5733 9148 c-13 -6 -23 -15 -23 -20 0 -12 18 -10 27 5 5 7 10 -17 14
-58 l5 -70 2 78 c1 42 1 77 0 76 -2 0 -13 -5 -25 -11z"/>
<path d="M5807 9153 c-4 -3 -7 -21 -7 -39 0 -32 2 -33 29 -28 24 5 30 2 36
-16 9 -27 -14 -54 -38 -44 -9 3 -17 10 -17 15 0 5 -5 9 -10 9 -7 0 -7 -6 0
-20 18 -33 69 -25 83 13 11 30 -10 57 -44 57 -24 0 -30 4 -25 16 3 9 6 18 6
20 0 2 14 4 30 4 17 0 30 5 30 10 0 11 -63 14 -73 3z"/>
<path d="M5936 9106 c-21 -72 -31 -123 -22 -114 10 8 48 159 42 165 -2 2 -11
-20 -20 -51z"/>
<path d="M6008 9149 c-10 -5 -18 -18 -18 -27 1 -16 1 -16 11 1 5 9 19 17 30
17 34 0 33 -28 -5 -72 -20 -23 -36 -45 -36 -50 0 -4 21 -8 46 -8 27 0 43 4 39
10 -3 6 -18 10 -32 10 l-25 0 26 34 c31 41 33 71 7 86 -23 12 -22 12 -43 -1z"/>
<path d="M6134 9152 c-34 -22 -41 -94 -13 -129 17 -19 57 -16 69 6 5 11 10 38
10 60 0 30 -6 44 -22 55 -25 18 -29 19 -44 8z m50 -43 c18 -52 -17 -106 -50
-78 -14 12 -19 65 -8 94 10 24 47 14 58 -16z"/>
<path d="M6258 9149 c-10 -5 -18 -18 -18 -27 1 -16 1 -16 11 1 5 9 19 17 30
17 37 0 33 -29 -10 -75 -22 -24 -41 -47 -41 -50 0 -3 20 -5 45 -5 25 0 45 5
45 10 0 6 -14 10 -32 10 l-32 0 32 33 c36 37 41 71 13 87 -23 12 -22 12 -43
-1z"/>
<path d="M6388 9115 c-47 -63 -48 -75 -3 -75 26 0 35 -4 36 -17 0 -14 2 -15 6
-3 3 8 11 18 17 23 8 5 8 9 -1 15 -6 4 -13 30 -15 57 l-3 50 -37 -50z m29 -52
c-3 -2 -15 -3 -26 -1 -20 3 -20 3 2 38 l22 35 3 -33 c2 -19 1 -36 -1 -39z"/>
<path d="M3042 9060 c1 -52 2 -52 5 -11 3 32 9 44 24 48 27 8 24 21 -6 19 -24
-1 -25 -4 -23 -56z"/>
<path d="M3123 9113 c-25 -10 -12 -22 17 -16 23 4 30 2 30 -10 0 -10 -11 -17
-27 -19 -22 -2 -28 -8 -28 -28 0 -22 5 -25 38 -27 l37 -1 0 42 c0 57 -23 77
-67 59z m47 -68 c0 -9 -7 -18 -16 -22 -18 -7 -39 11 -30 26 11 17 46 13 46 -4z"/>
<path d="M3220 9063 c0 -29 5 -53 10 -53 6 0 10 20 10 45 0 41 2 45 25 45 23
0 25 -4 25 -45 0 -25 5 -45 10 -45 13 0 13 66 0 90 -7 14 -20 19 -45 18 l-35
-1 0 -54z"/>
<path d="M3353 9114 c-25 -11 -14 -45 17 -55 17 -6 30 -15 30 -20 0 -17 -30
-22 -47 -8 -14 12 -16 12 -11 -1 6 -21 52 -24 68 -6 16 20 1 41 -36 50 -21 6
-24 9 -14 21 9 11 17 12 32 4 16 -9 19 -8 16 3 -5 14 -35 20 -55 12z"/>
<path d="M3522 9108 c-7 -7 -12 -26 -12 -43 0 -17 5 -36 12 -43 17 -17 53 -15
68 3 15 18 7 19 -19 3 -15 -9 -23 -9 -35 1 -26 22 -19 31 24 31 41 0 47 8 30
41 -12 21 -50 25 -68 7z m58 -23 c0 -10 -10 -15 -30 -15 -29 0 -38 9 -23 23
13 13 53 7 53 -8z"/>
<path d="M3632 9060 c1 -52 2 -52 5 -11 3 32 9 44 24 48 27 8 24 21 -6 19 -24
-1 -25 -4 -23 -56z"/>
<path d="M12930 9025 c0 -10 10 -15 30 -15 l30 0 0 -85 c0 -69 3 -85 15 -85
12 0 15 16 15 85 l0 85 35 0 c24 0 35 5 35 15 0 12 -16 15 -80 15 -64 0 -80
-3 -80 -15z"/>
<path d="M13677 9013 c-6 -16 -16 -32 -22 -36 -7 -6 -6 -10 3 -14 8 -3 12 -26
12 -64 0 -46 3 -59 15 -59 12 0 15 13 15 60 0 53 2 60 20 60 26 0 26 16 0 23
-23 6 -17 37 6 37 8 0 14 5 14 10 0 6 -11 10 -25 10 -18 0 -29 -8 -38 -27z"/>
<path d="M13151 8981 c-7 -5 -22 -6 -32 -4 -17 5 -19 -1 -19 -66 0 -55 3 -71
14 -71 11 0 16 15 18 53 2 43 7 54 26 62 12 5 22 15 22 22 0 15 -9 16 -29 4z"/>
<path d="M13223 8980 c-38 -16 -27 -31 17 -24 32 5 40 4 40 -9 0 -9 -14 -18
-36 -24 -45 -10 -64 -35 -48 -60 8 -13 25 -18 63 -19 l51 -1 0 63 c0 52 -3 65
-19 74 -23 12 -38 12 -68 0z m67 -78 c0 -19 -28 -44 -45 -41 -28 6 -30 28 -3
38 29 12 48 13 48 3z"/>
<path d="M13410 8980 c-8 -5 -25 -7 -37 -3 -22 5 -23 3 -23 -66 0 -56 3 -71
15 -71 11 0 15 11 15 43 0 50 18 81 46 75 16 -3 20 -13 22 -61 2 -42 7 -57 17
-57 24 0 21 112 -3 133 -21 19 -31 21 -52 7z"/>
<path d="M13530 8970 c-27 -27 -12 -56 32 -68 17 -4 33 -13 36 -20 6 -19 -27
-26 -54 -12 -30 16 -41 8 -19 -14 19 -19 76 -21 93 -4 7 7 12 22 12 34 0 17
-9 25 -40 36 -50 16 -48 34 5 31 l40 -2 -24 20 c-30 24 -56 24 -81 -1z"/>
<path d="M13775 8965 c-14 -13 -25 -34 -25 -45 0 -24 18 -61 34 -72 18 -12 61
-9 82 6 24 18 10 34 -16 18 -26 -16 -35 -15 -54 4 -24 24 -10 34 45 34 47 0
50 1 44 23 -9 28 -42 57 -67 57 -10 0 -30 -11 -43 -25z m75 -20 c11 -13 7 -15
-30 -15 -37 0 -41 2 -30 15 7 8 20 15 30 15 10 0 23 -7 30 -15z"/>
<path d="M13971 8981 c-7 -5 -22 -6 -32 -4 -17 5 -19 -1 -19 -66 0 -55 3 -71
14 -71 11 0 16 15 18 53 2 43 7 54 26 62 12 5 22 15 22 22 0 15 -9 16 -29 4z"/>
<path d="M14141 8981 c-7 -5 -22 -6 -32 -4 -17 5 -19 -1 -19 -66 0 -55 3 -71
15 -71 10 0 15 15 17 58 3 53 5 57 28 57 23 0 25 -4 28 -57 2 -42 7 -58 17
-58 10 0 15 16 17 58 3 50 6 57 26 60 21 3 22 0 22 -57 0 -48 3 -61 15 -61 12
0 15 14 15 63 0 36 -5 68 -12 75 -17 17 -43 15 -58 -3 -12 -14 -15 -14 -30 0
-19 17 -29 18 -49 6z"/>
<path d="M14370 8983 c-42 -15 -56 -96 -22 -126 25 -22 75 -21 95 1 20 22 22
81 5 105 -14 18 -55 29 -78 20z m54 -39 c19 -49 -9 -93 -46 -73 -18 10 -26 68
-11 82 12 13 51 7 57 -9z"/>
<path d="M14550 8980 c-8 -5 -25 -7 -37 -3 -22 5 -23 3 -23 -66 0 -56 3 -71
15 -71 11 0 15 11 15 43 0 50 18 81 46 75 16 -3 20 -13 22 -61 2 -42 7 -57 17
-57 24 0 21 112 -3 133 -21 19 -31 21 -52 7z"/>
<path d="M14675 8965 c-14 -13 -25 -34 -25 -45 0 -24 18 -61 34 -72 18 -12 61
-9 82 6 24 18 10 34 -16 18 -26 -16 -35 -15 -54 4 -24 24 -10 34 45 34 47 0
50 1 44 23 -9 28 -42 57 -67 57 -10 0 -30 -11 -43 -25z m75 -20 c11 -13 7 -15
-30 -15 -37 0 -41 2 -30 15 7 8 20 15 30 15 10 0 23 -7 30 -15z"/>
<path d="M14826 8918 c30 -76 30 -91 2 -111 l-23 -16 26 0 c35 -1 42 9 78 108
26 70 28 82 14 79 -9 -2 -23 -24 -33 -53 l-18 -50 -11 28 c-6 15 -14 39 -17
52 -4 15 -13 25 -24 25 -17 0 -17 -4 6 -62z"/>
<path d="M1435 8540 c-4 -6 10 -10 35 -10 l40 0 -31 -61 c-16 -34 -28 -63 -25
-66 2 -3 21 26 40 65 19 38 32 72 29 76 -10 10 -81 7 -88 -4z"/>
<path d="M5489 8530 c-13 -11 -19 -19 -13 -20 5 0 15 5 22 12 9 9 12 -3 12
-55 0 -38 4 -67 10 -67 12 0 13 137 1 144 -5 3 -20 -3 -32 -14z"/>
<path d="M5569 8530 c-13 -11 -19 -19 -13 -20 5 0 15 5 22 12 9 9 12 -3 12
-55 0 -38 4 -67 10 -67 12 0 13 137 1 144 -5 3 -20 -3 -32 -14z"/>
<path d="M5655 8478 c-10 -40 -20 -80 -23 -88 -3 -10 -2 -12 6 -5 6 6 18 38
26 72 9 34 19 69 22 78 3 8 2 15 -3 15 -5 0 -17 -33 -28 -72z"/>
<path d="M5719 8530 c-13 -11 -19 -19 -13 -20 5 0 15 5 22 12 9 9 12 -3 12
-55 0 -38 4 -67 10 -67 12 0 13 137 1 144 -5 3 -20 -3 -32 -14z"/>
<path d="M5828 8505 c-47 -63 -48 -75 -3 -75 26 0 35 -4 36 -17 0 -14 2 -15 6
-3 3 8 11 18 17 23 8 5 8 9 -1 15 -6 4 -13 30 -15 57 l-3 50 -37 -50z m29 -52
c-3 -2 -15 -3 -26 -1 -20 3 -20 3 2 38 l22 35 3 -33 c2 -19 1 -36 -1 -39z"/>
<path d="M5957 8543 c-11 -17 -45 -163 -38 -163 8 0 52 162 47 168 -2 2 -6 0
-9 -5z"/>
<path d="M6005 8534 c-9 -9 -13 -19 -10 -22 3 -3 11 0 17 6 7 7 20 12 30 12
30 0 21 -43 -17 -80 -19 -19 -35 -38 -35 -42 0 -4 20 -8 45 -8 25 0 45 5 45
10 0 6 -14 10 -31 10 l-31 0 31 35 c35 40 38 57 15 79 -20 20 -38 20 -59 0z"/>
<path d="M6130 8530 c-25 -25 -27 -91 -4 -114 40 -41 91 5 81 72 -6 33 -28 62
-49 62 -4 0 -17 -9 -28 -20z m54 -16 c11 -30 6 -82 -10 -95 -14 -11 -19 -10
-35 10 -22 26 -23 39 -9 75 11 29 44 35 54 10z"/>
<path d="M6254 8536 c-10 -8 -15 -18 -11 -22 4 -5 12 -2 16 5 11 17 45 10 49
-11 2 -9 -13 -34 -32 -56 -20 -22 -36 -42 -36 -46 0 -3 20 -6 45 -6 25 0 45 5
45 10 0 6 -14 10 -31 10 l-31 0 31 35 c35 40 38 57 15 79 -19 20 -35 20 -60 2z"/>
<path d="M6385 8496 c-19 -30 -35 -58 -35 -61 0 -3 16 -5 35 -5 24 0 35 -5 35
-15 0 -8 5 -15 10 -15 6 0 10 7 10 15 0 8 5 15 12 15 9 0 9 3 0 12 -7 7 -12
31 -12 54 0 24 -4 46 -10 49 -5 3 -25 -19 -45 -49z m35 -11 c0 -31 -3 -35 -25
-35 l-25 0 22 35 c13 19 24 35 26 35 1 0 2 -16 2 -35z"/>
<path d="M3080 8470 l0 -70 46 0 c27 0 43 4 39 10 -3 6 -19 10 -36 10 -29 0
-29 0 -29 60 0 33 -4 60 -10 60 -6 0 -10 -30 -10 -70z"/>
<path d="M12935 8520 c-3 -6 5 -10 19 -10 24 0 25 -3 29 -67 l3 -68 2 68 c2
65 3 67 28 67 14 0 23 4 19 10 -3 6 -26 10 -50 10 -24 0 -47 -4 -50 -10z"/>
<path d="M13473 8513 c-4 -10 -11 -22 -17 -26 -8 -6 -7 -10 2 -14 7 -2 13 -25
14 -51 l1 -47 4 44 c3 26 11 50 21 58 16 12 16 12 0 13 -10 0 -18 4 -18 10 0
5 8 14 18 19 16 10 16 10 -1 11 -10 0 -21 -8 -24 -17z"/>
<path d="M15796 8521 c-17 -27 -55 -141 -47 -141 5 0 13 9 16 20 9 30 71 28
78 -2 4 -12 9 -19 13 -15 7 6 -32 124 -46 140 -4 5 -11 4 -14 -2z m12 -79
c-27 -5 -30 1 -17 34 l11 29 13 -30 c12 -27 12 -30 -7 -33z"/>
<path d="M3202 8498 c-7 -7 -12 -26 -12 -43 0 -36 15 -55 45 -55 30 0 45 19
45 55 0 36 -15 55 -45 55 -12 0 -26 -5 -33 -12z m63 -28 c7 -23 -10 -60 -29
-60 -23 0 -39 28 -32 55 8 31 51 35 61 5z"/>
<path d="M3323 8503 c-25 -10 -12 -22 17 -16 23 4 30 2 30 -10 0 -10 -11 -17
-27 -19 -22 -2 -28 -8 -28 -28 0 -22 5 -25 38 -27 l37 -1 0 42 c0 57 -23 77
-67 59z m47 -68 c0 -9 -7 -18 -16 -22 -18 -7 -39 11 -30 26 11 17 46 13 46 -4z"/>
<path d="M3424 8501 c-8 -9 -4 -101 5 -101 6 0 11 19 13 43 2 35 7 43 26 45
20 3 22 -1 22 -42 0 -25 5 -46 10 -46 14 0 12 86 -2 98 -12 10 -65 12 -74 3z"/>
<path d="M13767 8497 c-5 -12 -2 -42 9 -94 2 -13 12 -23 21 -23 13 0 14 3 5
12 -16 16 -15 75 0 80 9 3 8 9 -4 21 -20 20 -24 21 -31 4z"/>
<path d="M16413 8496 c-6 -8 -8 -17 -3 -22 5 -5 10 -27 12 -49 2 -31 7 -40 23
-42 11 -2 14 0 8 3 -15 7 -17 80 -3 89 6 4 5 12 -4 21 -17 17 -18 17 -33 0z"/>
<path d="M13050 8433 c0 -29 5 -53 10 -53 6 0 10 20 10 45 0 33 4 45 15 45 8
0 15 4 15 9 0 5 -11 8 -25 7 -23 -1 -25 -5 -25 -53z"/>
<path d="M13137 8483 c-15 -14 -6 -19 24 -15 42 6 35 -21 -7 -28 -23 -4 -29
-10 -29 -30 0 -23 4 -25 43 -26 42 -2 42 -2 42 33 0 19 -5 43 -10 54 -10 18
-50 26 -63 12z m53 -67 c0 -18 -30 -30 -43 -17 -5 5 -6 14 -3 20 10 16 46 13
46 -3z"/>
<path d="M13240 8433 c0 -29 5 -53 10 -53 6 0 10 21 10 46 0 41 2 45 23 42 18
-2 23 -11 28 -48 7 -44 7 -44 5 10 l-1 55 -37 0 -38 1 0 -53z"/>
<path d="M13360 8475 c-10 -12 -10 -18 0 -30 7 -8 18 -15 25 -15 7 0 18 -6 24
-14 15 -18 -16 -31 -36 -15 -7 7 -17 9 -20 5 -11 -11 19 -26 47 -24 19 2 25 9
25 28 0 17 -6 26 -20 28 -30 6 -41 20 -27 34 9 9 15 9 24 0 17 -17 33 -15 18
3 -7 8 -20 15 -30 15 -10 0 -23 -7 -30 -15z"/>
<path d="M13536 8475 c-21 -21 -21 -59 0 -80 19 -19 65 -16 72 3 3 11 0 12
-16 3 -24 -13 -52 -5 -52 14 0 9 15 15 40 17 39 3 39 4 27 28 -15 30 -48 37
-71 15z m62 -22 c2 -9 -7 -13 -27 -13 -30 0 -39 9 -24 24 11 10 46 3 51 -11z"/>
<path d="M13640 8433 c0 -29 5 -53 10 -53 6 0 10 20 10 45 0 33 4 45 15 45 8
0 15 4 15 9 0 5 -11 8 -25 7 -23 -1 -25 -5 -25 -53z"/>
<path d="M13846 8475 c-32 -32 -12 -95 29 -95 15 0 31 10 42 26 15 24 15 29 2
53 -17 31 -50 38 -73 16z m62 -36 c3 -30 -18 -52 -42 -43 -16 6 -23 54 -9 68
16 16 48 1 51 -25z"/>
<path d="M15890 8433 c0 -29 5 -53 10 -53 6 0 10 20 10 45 0 38 3 45 20 45 17
0 20 -7 20 -45 0 -25 5 -45 10 -45 6 0 10 21 10 46 0 41 2 45 23 42 18 -2 23
-11 28 -48 l6 -45 1 53 c2 58 -14 75 -49 54 -11 -7 -20 -8 -24 -2 -3 5 -19 8
-35 7 -29 -2 -30 -3 -30 -54z"/>
<path d="M16076 8475 c-32 -32 -12 -95 29 -95 15 0 31 10 42 26 15 24 15 29 2
53 -17 31 -50 38 -73 16z m62 -36 c3 -30 -18 -52 -42 -43 -16 6 -23 54 -9 68
16 16 48 1 51 -25z"/>
<path d="M16180 8446 c0 -51 13 -65 58 -64 31 1 32 2 32 49 0 26 -4 51 -10 54
-6 4 -10 -11 -10 -38 0 -32 -5 -47 -16 -51 -26 -10 -34 2 -34 50 0 24 -4 44
-10 44 -5 0 -10 -20 -10 -44z"/>
<path d="M16300 8433 c0 -29 5 -53 10 -53 6 0 10 21 10 46 0 41 2 45 23 42 18
-2 23 -11 28 -48 7 -44 7 -44 5 10 l-1 55 -37 0 -38 1 0 -53z"/>
<path d="M12010 8215 l0 -64 38 -7 c20 -3 68 -12 105 -20 80 -16 110 -18 102
-5 -3 5 -50 17 -105 27 -54 10 -104 20 -110 24 -6 4 -10 25 -8 47 l3 41 186
-77 185 -76 -185 -76 -186 -77 -3 40 c-2 22 -1 42 1 44 2 2 53 14 113 26 114
22 121 24 111 34 -3 4 -60 -4 -126 -16 l-121 -22 0 -64 c0 -55 3 -64 18 -63 9
0 100 35 202 77 147 61 185 81 185 96 0 15 -39 35 -190 97 -104 44 -195 79
-202 79 -9 0 -13 -18 -13 -65z"/>
<path d="M1457 7927 c-26 -18 -33 -81 -13 -112 22 -34 62 -34 78 1 16 35 0 59
-41 59 -32 0 -35 3 -25 29 7 19 35 21 52 4 6 -6 14 -9 17 -6 8 8 -23 38 -39
38 -7 0 -20 -6 -29 -13z m51 -88 c4 -30 -22 -46 -44 -28 -17 14 -18 46 -1 52
25 11 42 1 45 -24z"/>
<path d="M5469 7920 c-13 -11 -19 -19 -13 -20 5 0 15 5 22 12 9 9 12 -3 12
-55 0 -38 4 -67 10 -67 12 0 13 137 1 144 -5 3 -20 -3 -32 -14z"/>
<path d="M5557 7922 c-19 -21 -22 -83 -7 -113 12 -22 52 -25 69 -6 18 23 24
73 11 98 -23 43 -47 50 -73 21z m57 -18 c16 -41 1 -104 -25 -104 -16 0 -39 33
-39 56 0 53 48 89 64 48z"/>
<path d="M5680 7859 c-24 -91 -21 -121 4 -35 21 71 30 116 23 116 -2 0 -15
-36 -27 -81z"/>
<path d="M5758 7929 c-10 -5 -18 -14 -18 -20 0 -5 8 -4 19 2 22 15 51 5 51
-16 0 -9 -10 -19 -22 -24 l-22 -8 22 -5 c25 -7 30 -43 7 -52 -18 -6 -45 2 -45
15 0 5 -5 9 -10 9 -7 0 -7 -7 0 -21 8 -15 19 -19 42 -17 38 4 58 30 41 56 -7
12 -8 24 -2 35 7 12 4 22 -11 37 -23 23 -28 24 -52 9z"/>
<path d="M5869 7920 c-13 -11 -19 -19 -13 -20 5 0 15 5 22 12 9 9 12 -3 12
-55 0 -38 4 -67 10 -67 12 0 13 137 1 144 -5 3 -20 -3 -32 -14z"/>
<path d="M5977 7933 c-11 -17 -45 -163 -38 -163 8 0 52 162 47 168 -2 2 -6 0
-9 -5z"/>
<path d="M6025 7924 c-9 -9 -13 -19 -10 -22 3 -3 11 0 17 6 7 7 20 12 30 12
30 0 21 -43 -17 -80 -19 -19 -35 -38 -35 -42 0 -4 20 -8 45 -8 25 0 45 5 45
10 0 6 -14 10 -31 10 l-31 0 31 35 c35 40 38 57 15 79 -20 20 -38 20 -59 0z"/>
<path d="M6150 7920 c-25 -25 -27 -91 -4 -114 40 -41 91 5 81 72 -6 33 -28 62
-49 62 -4 0 -17 -9 -28 -20z m54 -16 c11 -30 6 -82 -10 -95 -14 -11 -19 -10
-35 10 -22 26 -23 39 -9 75 11 29 44 35 54 10z"/>
<path d="M6274 7926 c-10 -8 -15 -18 -11 -22 4 -5 12 -2 16 5 11 17 45 10 49
-11 2 -9 -13 -34 -32 -56 -20 -22 -36 -42 -36 -46 0 -3 20 -6 45 -6 25 0 45 5
45 10 0 6 -14 10 -31 10 l-31 0 31 35 c35 40 38 57 15 79 -19 20 -35 20 -60 2z"/>
<path d="M6405 7886 c-19 -30 -35 -58 -35 -61 0 -3 16 -5 35 -5 24 0 35 -5 35
-15 0 -8 5 -15 10 -15 6 0 10 7 10 15 0 8 5 15 12 15 9 0 9 3 0 12 -7 7 -12
31 -12 54 0 24 -4 46 -10 49 -5 3 -25 -19 -45 -49z m35 -11 c0 -31 -3 -35 -25
-35 l-25 0 22 35 c13 19 24 35 26 35 1 0 2 -16 2 -35z"/>
<path d="M3080 7860 l0 -70 46 0 c27 0 43 4 39 10 -3 6 -19 10 -36 10 -29 0
-29 0 -29 60 0 33 -4 60 -10 60 -6 0 -10 -30 -10 -70z"/>
<path d="M3202 7888 c-7 -7 -12 -26 -12 -43 0 -36 15 -55 45 -55 30 0 45 19
45 55 0 36 -15 55 -45 55 -12 0 -26 -5 -33 -12z m63 -28 c7 -23 -10 -60 -29
-60 -23 0 -39 28 -32 55 8 31 51 35 61 5z"/>
<path d="M3323 7893 c-25 -10 -12 -22 17 -16 23 4 30 2 30 -10 0 -10 -11 -17
-27 -19 -22 -2 -28 -8 -28 -28 0 -22 5 -25 38 -27 l37 -1 0 42 c0 57 -23 77
-67 59z m47 -68 c0 -9 -7 -18 -16 -22 -18 -7 -39 11 -30 26 11 17 46 13 46 -4z"/>
<path d="M3424 7891 c-8 -9 -4 -101 5 -101 6 0 11 19 13 43 2 35 7 43 26 45
20 3 22 -1 22 -42 0 -25 5 -46 10 -46 14 0 12 86 -2 98 -12 10 -65 12 -74 3z"/>
<path d="M12995 7481 c-11 -5 -31 -21 -45 -36 -24 -26 -25 -31 -25 -166 l0
-139 33 -32 32 -33 1240 0 1240 0 32 33 33 32 0 140 0 140 -33 32 -32 33
-1228 2 c-675 1 -1236 -2 -1247 -6z m855 -146 c0 -8 -9 -15 -20 -15 -17 0 -20
-7 -20 -50 0 -38 -4 -50 -15 -50 -11 0 -15 12 -15 50 0 43 -3 50 -20 50 -11 0
-20 7 -20 15 0 12 13 15 55 15 42 0 55 -3 55 -15z m84 9 c26 -10 38 -41 26
-64 -8 -14 -8 -26 0 -40 9 -17 8 -20 -8 -20 -11 0 -27 10 -35 23 l-16 22 0
-22 c-1 -16 -7 -23 -21 -23 -18 0 -20 7 -20 58 0 32 3 62 7 65 8 9 46 9 67 1z
m145 -49 c26 -69 26 -75 1 -75 -11 0 -20 7 -20 15 0 8 -9 15 -20 15 -11 0 -20
-7 -20 -15 0 -8 -9 -15 -20 -15 -25 0 -25 0 1 71 29 78 50 79 78 4z m98 16
l23 -34 0 37 c0 30 3 37 18 34 14 -3 18 -16 20 -66 3 -60 2 -62 -22 -62 -17 0
-30 9 -40 28 l-15 27 -1 -27 c0 -21 -5 -28 -20 -28 -18 0 -20 7 -20 66 0 56 2
65 17 62 10 -2 28 -18 40 -37z m164 29 c21 -12 26 -40 6 -40 -7 0 -18 5 -24
11 -6 6 -17 8 -24 4 -8 -6 -1 -13 22 -24 25 -12 34 -23 34 -40 0 -34 -46 -49
-80 -27 -14 9 -25 21 -25 26 0 13 37 13 45 0 8 -13 25 -13 25 1 0 5 -13 15
-30 20 -22 8 -30 17 -30 34 0 38 42 55 81 35z m129 -5 c0 -10 -10 -15 -30 -15
-20 0 -30 -5 -30 -15 0 -10 10 -15 31 -15 38 0 35 -24 -4 -28 -19 -2 -27 -9
-27 -23 0 -10 -7 -19 -15 -19 -12 0 -15 14 -15 65 l0 65 45 0 c33 0 45 -4 45
-15z m110 0 c0 -9 -9 -15 -25 -15 -16 0 -25 -6 -25 -15 0 -9 9 -15 25 -15 14
0 25 -4 25 -10 0 -5 -11 -10 -25 -10 -16 0 -25 -6 -25 -15 0 -9 9 -15 25 -15
14 0 25 -4 25 -10 0 -5 -20 -10 -45 -10 l-45 0 0 65 0 65 45 0 c33 0 45 -4 45
-15z m94 9 c26 -10 38 -41 26 -64 -8 -14 -8 -26 0 -40 9 -17 8 -20 -8 -20 -11
0 -27 10 -35 23 l-16 22 0 -22 c-1 -16 -7 -23 -21 -23 -18 0 -20 7 -20 58 0
32 3 62 7 65 8 9 46 9 67 1z"/>
<path d="M13900 7306 c0 -9 7 -16 16 -16 17 0 14 22 -4 28 -7 2 -12 -3 -12
-12z"/>
<path d="M14640 7306 c0 -9 7 -16 16 -16 9 0 14 5 12 12 -6 18 -28 21 -28 4z"/>
<path d="M1447 7323 c-4 -3 -7 -21 -7 -39 0 -32 2 -33 29 -28 24 5 30 2 36
-16 9 -27 -14 -54 -38 -44 -9 3 -17 10 -17 15 0 5 -5 9 -10 9 -7 0 -7 -6 0
-20 18 -33 69 -25 83 13 11 30 -10 57 -44 57 -24 0 -30 4 -25 16 3 9 6 18 6
20 0 2 14 4 30 4 17 0 30 5 30 10 0 11 -63 14 -73 3z"/>
<path d="M2915 7320 c-4 -6 5 -10 19 -10 25 0 26 -2 26 -65 0 -37 4 -65 10
-65 6 0 10 28 10 65 0 58 2 65 20 65 11 0 20 5 20 10 0 6 -22 10 -49 10 -28 0
-53 -4 -56 -10z"/>
<path d="M3455 7310 c-3 -11 -11 -20 -18 -20 -8 0 -8 -3 1 -12 7 -7 12 -31 12
-55 0 -24 5 -43 10 -43 6 0 10 20 10 44 0 26 5 46 13 49 9 4 8 8 -3 16 -13 10
-12 13 4 26 19 15 19 15 -1 15 -13 0 -24 -8 -28 -20z"/>
<path d="M5469 7310 c-13 -11 -19 -19 -13 -20 5 0 15 5 22 12 9 9 12 -3 12
-55 0 -38 4 -67 10 -67 12 0 13 137 1 144 -5 3 -20 -3 -32 -14z"/>
<path d="M5557 7312 c-19 -21 -22 -83 -7 -113 12 -22 52 -25 69 -6 18 23 24
73 11 98 -23 43 -47 50 -73 21z m57 -18 c16 -41 1 -104 -25 -104 -16 0 -39 33
-39 56 0 53 48 89 64 48z"/>
<path d="M5680 7249 c-24 -91 -21 -121 4 -35 21 71 30 116 23 116 -2 0 -15
-36 -27 -81z"/>
<path d="M5753 7318 c-13 -6 -23 -15 -23 -20 0 -12 18 -10 27 5 5 7 10 -17 14
-58 l5 -70 2 78 c1 42 1 77 0 76 -2 0 -13 -5 -25 -11z"/>
<path d="M5838 7319 c-21 -12 -23 -40 -6 -57 8 -8 8 -12 1 -12 -17 0 -24 -29
-12 -51 7 -15 19 -19 41 -17 36 4 55 27 43 54 -4 11 -7 31 -6 46 2 18 -4 30
-18 37 -23 13 -22 13 -43 0z m50 -32 c2 -9 -4 -20 -13 -23 -20 -8 -50 19 -40
36 10 17 49 8 53 -13z m0 -63 c3 -23 -18 -37 -43 -28 -18 7 -20 40 -2 47 23
10 42 2 45 -19z"/>
<path d="M5955 7258 c-10 -40 -20 -80 -23 -88 -3 -10 -2 -12 6 -5 6 6 18 38
26 72 9 34 19 69 22 78 3 8 2 15 -3 15 -5 0 -17 -33 -28 -72z"/>
<path d="M6025 7314 c-9 -9 -13 -19 -10 -22 3 -3 11 0 17 6 7 7 20 12 30 12
30 0 21 -43 -17 -80 -19 -19 -35 -38 -35 -42 0 -4 20 -8 45 -8 25 0 45 5 45
10 0 6 -14 10 -31 10 l-31 0 31 35 c35 40 38 57 15 79 -20 20 -38 20 -59 0z"/>
<path d="M6150 7310 c-25 -25 -27 -91 -4 -114 40 -41 91 5 81 72 -6 33 -28 62
-49 62 -4 0 -17 -9 -28 -20z m54 -16 c11 -30 6 -82 -10 -95 -14 -11 -19 -10
-35 10 -22 26 -23 39 -9 75 11 29 44 35 54 10z"/>
<path d="M6274 7316 c-10 -8 -15 -18 -11 -22 4 -5 12 -2 16 5 11 17 45 10 49
-11 2 -9 -13 -34 -32 -56 -20 -22 -36 -42 -36 -46 0 -3 20 -6 45 -6 25 0 45 5
45 10 0 6 -14 10 -31 10 l-31 0 31 35 c35 40 38 57 15 79 -19 20 -35 20 -60 2z"/>
<path d="M6405 7276 c-19 -30 -35 -58 -35 -61 0 -3 16 -5 35 -5 24 0 35 -5 35
-15 0 -8 5 -15 10 -15 6 0 10 7 10 15 0 8 5 15 12 15 9 0 9 3 0 12 -7 7 -12
31 -12 54 0 24 -4 46 -10 49 -5 3 -25 -19 -45 -49z m35 -11 c0 -31 -3 -35 -25
-35 l-25 0 22 35 c13 19 24 35 26 35 1 0 2 -16 2 -35z"/>
<path d="M3042 7230 c1 -52 2 -52 5 -11 3 32 9 44 24 48 27 8 24 21 -6 19 -24
-1 -25 -4 -23 -56z"/>
<path d="M3123 7283 c-25 -10 -12 -22 17 -16 23 4 30 2 30 -10 0 -10 -11 -17
-27 -19 -22 -2 -28 -8 -28 -28 0 -22 5 -25 38 -27 l37 -1 0 42 c0 57 -23 77
-67 59z m47 -68 c0 -9 -7 -18 -16 -22 -18 -7 -39 11 -30 26 11 17 46 13 46 -4z"/>
<path d="M3220 7233 c0 -29 5 -53 10 -53 6 0 10 20 10 45 0 41 2 45 25 45 23
0 25 -4 25 -45 0 -25 5 -45 10 -45 13 0 13 66 0 90 -7 14 -20 19 -45 18 l-35
-1 0 -54z"/>
<path d="M3353 7284 c-25 -11 -14 -45 17 -55 17 -6 30 -15 30 -20 0 -17 -30
-22 -47 -8 -14 12 -16 12 -11 -1 6 -21 52 -24 68 -6 16 20 1 41 -36 50 -21 6
-24 9 -14 21 9 11 17 12 32 4 16 -9 19 -8 16 3 -5 14 -35 20 -55 12z"/>
<path d="M3522 7278 c-7 -7 -12 -26 -12 -43 0 -17 5 -36 12 -43 17 -17 53 -15
68 3 15 18 7 19 -19 3 -15 -9 -23 -9 -35 1 -26 22 -19 31 24 31 41 0 47 8 30
41 -12 21 -50 25 -68 7z m58 -23 c0 -10 -10 -15 -30 -15 -29 0 -38 9 -23 23
13 13 53 7 53 -8z"/>
<path d="M3632 7230 c1 -52 2 -52 5 -11 3 32 9 44 24 48 27 8 24 21 -6 19 -24
-1 -25 -4 -23 -56z"/>
<path d="M12940 6100 c0 -80 3 -100 14 -100 10 0 16 13 18 37 4 54 30 55 60 4
14 -25 30 -41 41 -41 18 0 18 2 -2 36 -20 33 -20 38 -6 54 8 9 15 31 15 48 0
41 -31 62 -92 62 l-48 0 0 -100z m108 41 c4 -28 -12 -41 -50 -41 -25 0 -28 3
-28 36 0 35 1 35 38 32 30 -2 38 -7 40 -27z"/>
<path d="M14070 6100 c0 -82 3 -100 15 -100 12 0 15 18 15 100 0 82 -3 100
-15 100 -12 0 -15 -18 -15 -100z"/>
<path d="M13920 6165 c0 -9 -7 -18 -15 -21 -19 -8 -20 -24 0 -24 10 0 15 -15
17 -57 3 -55 4 -58 31 -61 28 -3 38 15 12 24 -19 8 -21 90 -2 98 10 5 10 7 0
12 -7 3 -13 14 -13 25 0 10 -7 19 -15 19 -8 0 -15 -7 -15 -15z"/>
<path d="M13130 6130 c-26 -26 -27 -90 -2 -113 25 -23 75 -21 97 3 16 18 17
20 1 20 -9 0 -25 -5 -35 -12 -15 -9 -23 -9 -35 1 -31 26 -19 41 34 41 58 0 65
16 25 55 -29 30 -58 32 -85 5z m74 -25 c4 -12 -3 -15 -29 -15 -33 0 -43 8 -28
23 12 13 51 7 57 -8z"/>
<path d="M13293 6135 c-30 -21 -32 -93 -5 -118 22 -20 53 -22 70 -5 9 9 12 4
12 -25 0 -26 4 -37 15 -37 12 0 15 17 15 95 0 92 -1 95 -22 94 -13 0 -32 2
-43 5 -12 4 -30 0 -42 -9z m71 -31 c19 -49 -9 -93 -46 -73 -18 10 -26 68 -11
82 12 13 51 7 57 -9z"/>
<path d="M13620 6130 c-26 -26 -27 -90 -2 -113 25 -23 75 -21 97 3 16 18 17
20 1 20 -9 0 -25 -5 -35 -12 -15 -9 -23 -9 -35 1 -31 26 -19 41 34 41 58 0 65
16 25 55 -29 30 -58 32 -85 5z m74 -25 c4 -12 -3 -15 -29 -15 -33 0 -43 8 -28
23 12 13 51 7 57 -8z"/>
<path d="M13776 6137 c-29 -22 -17 -60 24 -73 19 -6 36 -16 38 -23 5 -16 -27
-26 -41 -12 -6 6 -20 11 -31 11 -18 0 -19 -1 -1 -20 20 -22 74 -27 93 -8 7 7
12 22 12 35 0 17 -9 25 -40 34 -57 17 -55 44 3 35 l42 -6 -24 20 c-27 23 -50
25 -75 7z"/>
<path d="M14155 6125 c-31 -30 -33 -77 -5 -105 20 -20 65 -26 86 -12 16 11 34
48 34 72 0 27 -43 70 -70 70 -11 0 -32 -11 -45 -25z m75 -24 c5 -11 10 -26 10
-35 0 -16 -26 -46 -40 -46 -16 0 -40 32 -40 54 0 44 50 63 70 27z"/>
<path d="M14319 6130 l-24 -20 44 3 c59 3 66 -19 9 -30 -41 -8 -43 -10 -43
-43 0 -31 3 -35 28 -38 16 -2 35 2 43 9 10 8 14 8 14 0 0 -6 7 -11 15 -11 12
0 15 13 15 59 0 51 -3 62 -22 75 -30 21 -51 20 -79 -4z m69 -76 c-5 -29 -35
-41 -55 -22 -16 16 -15 18 8 27 36 15 51 13 47 -5z"/>
<path d="M14511 6141 c-7 -5 -22 -6 -32 -4 -17 5 -19 -1 -19 -66 0 -55 3 -71
15 -71 10 0 15 15 17 58 3 53 5 57 28 57 23 0 25 -4 28 -57 2 -43 7 -58 17
-58 12 0 15 15 15 65 0 53 -3 66 -19 75 -24 12 -32 12 -50 1z"/>
<path d="M9065 6115 c-25 -24 -25 -26 -25 -205 0 -179 0 -181 25 -205 l24 -25
661 0 661 0 24 25 c25 24 25 26 25 205 0 179 0 181 -25 205 l-24 25 -661 0
-661 0 -24 -25z m659 -127 c16 -27 -1 -34 -35 -14 -24 14 -33 15 -44 6 -20
-17 -11 -28 35 -40 51 -14 68 -42 45 -76 -22 -34 -96 -35 -119 -2 -21 30 -20
38 4 38 11 0 20 -4 20 -10 0 -15 37 -31 55 -24 28 11 12 36 -35 53 -48 18 -63
48 -39 77 17 21 98 15 113 -8z m163 0 c52 -49 17 -148 -53 -148 -47 0 -63 9
-80 42 -20 39 -11 92 19 113 32 22 86 19 114 -7z m171 10 c18 -18 15 -46 -7
-60 -18 -11 -18 -13 5 -50 29 -46 29 -48 5 -48 -13 0 -28 15 -42 40 -14 24
-30 40 -41 40 -14 0 -18 -8 -18 -40 0 -33 -3 -40 -20 -40 -18 0 -20 7 -20 85
l0 85 63 0 c36 0 68 -5 75 -12z m152 2 c0 -5 -11 -10 -25 -10 -24 0 -25 -2
-25 -75 0 -68 -2 -75 -20 -75 -18 0 -20 7 -20 75 0 73 -1 75 -25 75 -14 0 -25
5 -25 10 0 6 30 10 70 10 40 0 70 -4 70 -10z m-768 -37 c21 -20 38 -41 38 -45
0 -14 -27 -8 -41 9 -12 14 -15 11 -19 -32 -7 -72 -30 -71 -30 1 l0 57 -23 -21
c-26 -25 -37 -28 -37 -10 0 12 59 78 69 78 3 0 22 -17 43 -37z"/>
<path d="M9796 5974 c-35 -34 -11 -114 34 -114 22 0 50 36 50 65 0 29 -28 65
-50 65 -10 0 -26 -7 -34 -16z"/>
<path d="M9960 5965 c0 -19 5 -25 23 -25 31 0 51 15 44 34 -4 10 -18 16 -37
16 -25 0 -30 -4 -30 -25z"/>
<path d="M13440 6082 c0 -62 11 -82 45 -82 12 0 26 5 33 12 9 9 12 9 12 0 0
-7 7 -12 15 -12 12 0 15 14 15 70 0 54 -3 70 -14 70 -11 0 -16 -15 -18 -52 -3
-49 -5 -53 -28 -53 -23 0 -25 4 -28 53 -2 37 -7 52 -18 52 -10 0 -14 -14 -14
-58z"/>
<path d="M620 5916 c0 -44 4 -76 10 -76 6 0 10 30 10 69 0 39 -4 73 -10 76 -6
4 -10 -22 -10 -69z"/>
<path d="M3405 5965 c-27 -26 -31 -54 -14 -88 15 -28 28 -37 57 -37 60 0 85
90 36 129 -34 27 -50 26 -79 -4z m69 -11 c19 -18 21 -65 4 -82 -46 -46 -105
32 -61 80 20 22 37 23 57 2z"/>
<path d="M6256 5983 c-3 -3 -6 -37 -6 -75 0 -54 3 -68 15 -68 12 0 15 14 15
69 0 65 -8 90 -24 74z"/>
<path d="M3658 5958 c-3 -7 -2 -35 1 -63 5 -44 9 -50 31 -53 23 -2 24 -1 8 11
-21 16 -24 73 -6 79 9 3 8 9 -4 21 -20 20 -24 21 -30 5z"/>
<path d="M6428 5958 c-3 -7 -2 -35 1 -63 5 -44 9 -50 31 -53 23 -2 24 -1 8 11
-21 16 -24 73 -6 79 9 3 8 9 -4 21 -20 20 -24 21 -30 5z"/>
<path d="M6900 5953 c-10 -12 -11 -18 -2 -21 7 -2 12 -21 12 -43 0 -38 21 -62
38 -44 4 4 1 10 -5 12 -17 6 -17 70 -1 75 9 3 8 9 -4 21 -20 20 -19 20 -38 0z"/>
<path d="M670 5893 c0 -63 18 -72 22 -10 2 34 7 42 23 42 16 0 21 -8 23 -42 4
-56 22 -55 22 1 0 50 -12 63 -57 63 l-33 0 0 -54z"/>
<path d="M3542 5898 l3 -53 43 -1 42 -1 0 54 c0 63 -17 72 -22 11 -2 -36 -7
-44 -25 -46 -21 -3 -23 1 -23 42 0 26 -5 46 -11 46 -6 0 -9 -21 -7 -52z"/>
<path d="M6310 5893 c0 -63 17 -72 22 -10 2 34 7 42 23 42 16 0 21 -8 23 -42
4 -56 22 -55 22 1 0 51 -13 65 -58 64 -32 -1 -32 -1 -32 -55z"/>
<path d="M6506 5935 c-20 -20 -21 -68 -2 -84 18 -15 68 -11 73 6 3 7 -8 10
-28 10 -48 -3 -48 21 0 25 40 3 40 4 28 28 -15 30 -48 37 -71 15z m54 -20 c0
-9 -9 -15 -25 -15 -24 0 -32 10 -18 23 12 13 43 7 43 -8z"/>
<path d="M6610 5893 c0 -29 5 -53 10 -53 6 0 10 18 10 41 0 32 4 42 20 46 30
8 24 22 -10 21 -29 -1 -30 -2 -30 -55z"/>
<path d="M6696 5935 c-20 -20 -21 -68 -2 -84 18 -15 68 -11 73 6 3 7 -8 10
-28 10 -48 -3 -48 21 0 25 40 3 40 4 28 28 -15 30 -48 37 -71 15z m54 -20 c0
-9 -9 -15 -25 -15 -24 0 -32 10 -18 23 12 13 43 7 43 -8z"/>
<path d="M6813 5943 c-25 -9 -14 -44 17 -54 39 -14 39 -33 0 -27 -19 3 -29 1
-27 -6 6 -17 52 -18 66 -2 17 21 8 44 -20 48 -12 2 -25 9 -27 17 -4 11 3 13
28 8 28 -6 31 -5 20 8 -12 15 -34 18 -57 8z"/>
<path d="M12962 5639 c-11 -30 -22 -65 -26 -79 l-7 -25 17 23 c22 29 74 31 81
2 3 -11 10 -20 15 -20 6 0 7 8 3 18 -4 9 -14 37 -22 62 -26 77 -38 80 -61 19z
m43 -16 c5 -19 2 -23 -14 -23 -23 0 -24 3 -15 38 7 26 18 20 29 -15z"/>
<path d="M13597 5657 c-5 -12 -2 -42 9 -94 2 -13 12 -23 21 -23 13 0 14 3 5
12 -16 16 -15 75 0 80 9 3 8 9 -4 21 -20 20 -24 21 -31 4z"/>
<path d="M13074 5641 c-8 -9 -4 -101 5 -101 6 0 11 19 13 43 2 34 7 42 23 42
16 0 21 -9 26 -45 l5 -45 5 45 c3 37 8 46 27 48 20 3 22 -1 22 -42 0 -25 5
-46 10 -46 15 0 12 87 -2 97 -13 8 -126 12 -134 4z"/>
<path d="M13263 5638 c-21 -27 -23 -51 -8 -74 29 -45 85 -22 85 35 0 40 -55
68 -77 39z m60 -30 c11 -42 -23 -74 -51 -46 -13 13 -16 50 -5 61 15 16 51 6
56 -15z"/>
<path d="M13374 5600 l1 -55 38 0 37 -1 -2 56 c-1 48 -2 50 -5 13 -5 -49 -25
-72 -47 -53 -8 6 -17 30 -19 53 -3 31 -4 27 -3 -13z"/>
<path d="M13484 5641 c-8 -9 -4 -101 5 -101 6 0 11 19 13 43 2 35 7 43 26 45
20 3 22 -1 22 -42 0 -25 5 -46 10 -46 14 0 12 86 -2 98 -12 10 -65 12 -74 3z"/>
<path d="M12973 3335 c-32 -23 -47 -77 -33 -120 14 -43 44 -65 88 -65 32 0 82
36 82 60 0 17 -24 11 -43 -10 -20 -24 -60 -26 -81 -4 -9 9 -16 32 -16 54 0 22
7 45 16 54 21 22 61 20 81 -4 19 -21 43 -27 43 -10 0 6 -11 22 -25 35 -28 29
-79 33 -112 10z"/>
<path d="M13140 3250 c0 -82 3 -100 15 -100 12 0 15 18 15 100 0 82 -3 100
-15 100 -12 0 -15 -18 -15 -100z"/>
<path d="M14710 3315 c0 -9 -7 -18 -15 -21 -19 -8 -20 -24 0 -24 10 0 15 -15
17 -57 3 -55 4 -58 31 -61 28 -3 38 15 12 24 -19 8 -21 90 -2 98 10 5 10 7 0
12 -7 3 -13 14 -13 25 0 10 -7 19 -15 19 -8 0 -15 -7 -15 -15z"/>
<path d="M13225 3275 c-30 -30 -32 -64 -4 -99 40 -51 119 -21 119 44 0 36 -39
80 -70 80 -11 0 -32 -11 -45 -25z m73 -17 c17 -17 15 -54 -4 -72 -21 -22 -31
-20 -50 9 -30 46 17 100 54 63z"/>
<path d="M13392 3289 c-35 -14 -27 -59 13 -72 63 -18 60 -16 42 -34 -14 -15
-20 -15 -42 -3 -29 16 -44 7 -25 -15 16 -20 74 -19 94 1 31 31 15 56 -41 69
-20 4 -33 13 -33 22 0 13 8 14 40 9 43 -7 54 6 21 24 -23 12 -38 12 -69 -1z"/>
<path d="M13535 3275 c-66 -65 16 -165 91 -111 26 19 10 32 -22 18 -18 -9 -31
-9 -45 -1 -32 17 -16 34 34 37 42 3 47 6 47 27 0 26 -33 55 -63 55 -10 0 -29
-11 -42 -25z m73 -22 c2 -9 -8 -13 -32 -13 -28 0 -34 3 -29 16 7 18 54 16 61
-3z"/>
<path d="M13759 3280 l-24 -20 44 3 c59 3 66 -19 9 -30 -41 -8 -43 -10 -43
-43 0 -31 3 -35 28 -38 16 -2 35 2 43 9 10 8 14 8 14 0 0 -6 7 -11 15 -11 12
0 15 13 15 59 0 51 -3 62 -22 75 -30 21 -51 20 -79 -4z m69 -76 c-5 -29 -35
-41 -55 -22 -16 16 -15 18 8 27 36 15 51 13 47 -5z"/>
<path d="M13925 3288 c-11 -6 -23 -16 -27 -22 -13 -19 -9 -71 8 -94 21 -31 77
-30 99 0 19 28 4 35 -26 14 -41 -28 -74 14 -53 68 7 18 45 21 61 5 6 -6 17 -9
24 -7 9 3 6 11 -9 26 -24 24 -47 27 -77 10z"/>
<path d="M14090 3293 c-42 -15 -56 -96 -21 -127 24 -22 80 -18 95 6 15 24 1
33 -25 14 -35 -24 -61 -5 -57 42 3 32 7 37 31 40 15 2 27 -1 27 -7 0 -6 9 -11
20 -11 26 0 16 24 -16 39 -27 12 -31 12 -54 4z"/>
<path d="M14225 3275 c-47 -46 -20 -125 43 -125 33 0 45 8 61 37 17 34 13 62
-14 88 -31 32 -59 32 -90 0z m75 -24 c5 -11 10 -26 10 -35 0 -16 -26 -46 -40
-46 -16 0 -40 32 -40 54 0 44 50 63 70 27z"/>
<path d="M14585 3290 c-3 -6 -17 -7 -31 -4 -24 6 -24 5 -24 -65 0 -56 3 -71
15 -71 11 0 15 12 15 48 0 50 12 72 41 72 21 0 29 -20 29 -76 0 -32 4 -44 15
-44 25 0 21 104 -5 130 -22 22 -45 26 -55 10z"/>
<path d="M14370 3239 c0 -28 5 -59 10 -70 12 -22 49 -25 69 -6 11 10 14 10 18
0 12 -33 23 -6 23 57 0 54 -3 70 -14 70 -11 0 -16 -15 -18 -52 -3 -49 -5 -53
-28 -53 -23 0 -25 4 -28 53 -2 37 -7 52 -18 52 -10 0 -14 -13 -14 -51z"/>
<path d="M12963 2825 c-45 -31 -36 -119 14 -131 32 -8 73 11 73 33 -1 17 -1
17 -14 1 -15 -21 -56 -24 -74 -6 -7 7 -12 26 -12 43 0 53 43 73 82 38 10 -9
18 -11 18 -5 0 12 -39 42 -55 42 -6 0 -20 -7 -32 -15z"/>
<path d="M13333 2823 c-4 -10 -11 -22 -17 -26 -8 -6 -7 -10 2 -14 7 -2 13 -25
14 -51 l1 -47 4 44 c3 26 11 50 21 58 16 12 16 12 0 13 -10 0 -18 4 -18 10 0
5 8 14 18 19 16 10 16 10 -1 11 -10 0 -21 -8 -24 -17z"/>
<path d="M13390 2830 c0 -5 5 -10 10 -10 6 0 10 5 10 10 0 6 -4 10 -10 10 -5
0 -10 -4 -10 -10z"/>
<path d="M15790 2833 c-64 -23 -48 -143 19 -143 15 0 36 9 46 20 10 11 13 20
7 20 -6 0 -14 -4 -17 -10 -3 -5 -20 -10 -36 -10 -22 0 -32 7 -41 26 -24 53 37
107 76 68 9 -9 19 -14 22 -11 8 8 -34 47 -48 46 -7 0 -20 -3 -28 -6z"/>
<path d="M16145 2820 c-3 -11 -11 -20 -18 -20 -8 0 -8 -3 1 -12 7 -7 12 -31
12 -55 0 -24 5 -43 10 -43 6 0 10 20 10 44 0 26 5 46 13 49 9 4 8 8 -3 16 -13
10 -12 13 4 26 19 15 19 15 -1 15 -13 0 -24 -8 -28 -20z"/>
<path d="M16205 2830 c-3 -5 -1 -10 4 -10 6 0 11 5 11 10 0 6 -2 10 -4 10 -3
0 -8 -4 -11 -10z"/>
<path d="M16567 2833 c-11 -10 -8 -143 3 -143 6 0 10 11 10 24 0 19 7 25 35
30 46 9 60 50 25 78 -22 18 -61 24 -73 11z m68 -43 c0 -20 -6 -26 -27 -28 -25
-3 -28 0 -28 28 0 28 3 31 28 28 21 -2 27 -8 27 -28z"/>
<path d="M16693 2765 c0 -44 2 -61 4 -37 2 23 2 59 0 80 -2 20 -4 1 -4 -43z"/>
<path d="M16747 2833 c-11 -10 -8 -143 3 -143 5 0 10 26 12 58 l3 57 35 -57
c47 -78 60 -76 60 12 0 40 -4 70 -10 70 -5 0 -10 -26 -10 -57 l0 -58 -40 63
c-43 66 -43 66 -53 55z"/>
<path d="M13092 2788 c-7 -7 -12 -26 -12 -43 0 -36 15 -55 45 -55 30 0 45 19
45 57 0 45 -49 70 -78 41z m63 -28 c7 -23 -10 -60 -28 -60 -29 0 -50 53 -30
73 14 15 52 6 58 -13z"/>
<path d="M13200 2743 c0 -29 5 -53 10 -53 6 0 10 20 10 45 0 41 2 45 25 45 23
0 25 -4 25 -45 0 -25 5 -45 10 -45 13 0 13 66 0 91 -8 14 -20 18 -45 16 l-35
-2 0 -52z"/>
<path d="M13390 2745 c0 -30 5 -55 10 -55 6 0 10 25 10 55 0 30 -4 55 -10 55
-5 0 -10 -25 -10 -55z"/>
<path d="M13440 2743 c0 -29 5 -53 10 -53 6 0 10 20 10 45 0 33 4 45 15 45 8
0 15 4 15 9 0 5 -11 8 -25 7 -23 -1 -25 -5 -25 -53z"/>
<path d="M13522 2740 l1 -55 6 45 c5 37 10 46 29 48 20 3 22 -1 22 -42 0 -25
5 -46 10 -46 6 0 10 20 10 45 0 38 3 45 20 45 17 0 20 -7 20 -45 0 -25 5 -45
10 -45 15 0 12 87 -2 97 -7 4 -39 8 -70 8 l-58 0 2 -55z"/>
<path d="M13754 2750 l1 -55 38 0 37 -1 -2 56 c-1 48 -2 50 -5 13 -5 -49 -25
-72 -47 -53 -8 6 -17 30 -19 53 -3 31 -4 27 -3 -13z"/>
<path d="M13872 2791 c-21 -13 -10 -44 17 -51 14 -3 26 -11 29 -18 6 -18 -26
-26 -45 -11 -14 12 -16 12 -11 -1 6 -21 52 -24 68 -6 10 13 10 19 0 31 -7 8
-18 15 -26 15 -18 0 -28 20 -16 32 8 8 16 7 28 -3 15 -12 17 -12 12 1 -5 18
-37 24 -56 11z"/>
<path d="M13976 2785 c-21 -21 -21 -59 0 -80 19 -19 65 -16 72 3 3 11 0 12
-16 3 -24 -13 -52 -5 -52 14 0 9 15 15 40 17 39 3 39 4 27 28 -15 30 -48 37
-71 15z m62 -22 c2 -9 -7 -13 -27 -13 -30 0 -39 9 -24 24 11 10 46 3 51 -11z"/>
<path d="M14080 2743 c0 -29 5 -53 10 -53 6 0 10 20 10 45 0 33 4 45 15 45 8
0 15 4 15 9 0 5 -11 8 -25 7 -23 -1 -25 -5 -25 -53z"/>
<path d="M15907 2782 c-32 -35 -11 -92 33 -92 23 0 50 26 50 48 0 26 -29 62
-49 62 -10 0 -25 -8 -34 -18z m61 -33 c3 -30 -18 -52 -42 -43 -16 6 -23 54 -9
68 16 16 48 1 51 -25z"/>
<path d="M16022 2740 l1 -55 6 45 c5 40 9 45 31 45 22 0 26 -5 31 -45 l6 -45
1 46 c2 52 -10 68 -50 66 -27 -2 -28 -4 -26 -57z"/>
<path d="M16213 2745 c0 -33 2 -45 4 -27 2 18 2 45 0 60 -2 15 -4 0 -4 -33z"/>
<path d="M16254 2791 c-9 -9 -4 -101 6 -101 6 0 10 18 10 41 0 32 4 42 20 46
29 8 25 23 -6 21 -14 -2 -27 -4 -30 -7z"/>
<path d="M16330 2743 c0 -29 5 -53 10 -53 6 0 10 20 10 45 0 38 3 45 20 45 17
0 20 -7 20 -45 0 -25 5 -45 10 -45 6 0 10 21 10 46 0 41 2 45 23 42 18 -2 23
-11 28 -48 l6 -45 1 53 c2 58 -14 75 -49 54 -11 -7 -20 -8 -24 -2 -3 5 -19 8
-35 7 -29 -2 -30 -3 -30 -54z"/>
<path d="M16060 780 c0 -5 9 -24 20 -42 11 -18 20 -48 20 -65 0 -18 5 -33 10
-33 6 0 10 14 10 30 0 17 12 49 26 71 32 52 24 63 -10 13 l-25 -37 -21 36
c-22 38 -30 45 -30 27z"/>
<path d="M16630 780 c0 -5 5 -10 10 -10 6 0 10 5 10 10 0 6 -4 10 -10 10 -5 0
-10 -4 -10 -10z"/>
<path d="M17820 780 c0 -5 5 -10 10 -10 6 0 10 5 10 10 0 6 -4 10 -10 10 -5 0
-10 -4 -10 -10z"/>
<path d="M18046 768 c-13 -48 -8 -58 28 -58 37 0 54 -21 31 -40 -10 -8 -19 -8
-34 2 -25 15 -39 4 -21 -17 15 -18 61 -20 78 -3 7 7 12 24 12 40 0 30 -28 52
-54 42 -11 -4 -16 -1 -16 10 0 11 9 16 30 16 20 0 30 5 30 15 0 11 -11 15 -39
15 -32 0 -40 -4 -45 -22z"/>
<path d="M18188 779 c-20 -11 -24 -44 -8 -54 6 -4 4 -12 -5 -21 -19 -20 -19
-29 1 -49 37 -36 113 2 87 43 -8 13 -8 24 0 37 8 15 5 22 -13 37 -25 20 -37
22 -62 7z m52 -34 c0 -8 -9 -15 -20 -15 -11 0 -20 7 -20 15 0 8 9 15 20 15 11
0 20 -7 20 -15z m0 -65 c0 -13 -7 -20 -19 -20 -22 0 -35 15 -26 30 12 19 45
11 45 -10z"/>
<path d="M18366 768 c-13 -48 -8 -58 28 -58 37 0 54 -21 31 -40 -10 -8 -19 -8
-34 2 -25 15 -39 4 -21 -17 15 -18 61 -20 78 -3 7 7 12 24 12 40 0 30 -28 52
-54 42 -11 -4 -16 -1 -16 10 0 11 9 16 30 16 20 0 30 5 30 15 0 11 -11 15 -39
15 -32 0 -40 -4 -45 -22z"/>
<path d="M18500 770 c-26 -26 -27 -90 -2 -113 35 -32 92 -11 92 33 0 28 -38
52 -62 39 -17 -9 -19 -8 -16 8 3 14 12 18 43 16 l40 -2 -24 19 c-29 25 -46 25
-71 0z m60 -80 c0 -24 -26 -38 -42 -22 -16 16 -2 42 22 42 13 0 20 -7 20 -20z"/>
<path d="M16680 710 c0 -40 4 -70 10 -70 6 0 10 30 10 70 0 40 -4 70 -10 70
-6 0 -10 -30 -10 -70z"/>
<path d="M16730 710 c0 -40 4 -70 10 -70 6 0 10 30 10 70 0 40 -4 70 -10 70
-6 0 -10 -30 -10 -70z"/>
<path d="M16830 711 l0 -69 37 1 c29 2 41 8 52 28 13 24 13 29 -3 54 -13 20
-24 26 -42 22 -18 -3 -24 0 -24 14 0 11 -4 19 -10 19 -6 0 -10 -30 -10 -69z
m78 -12 c3 -30 -18 -52 -42 -43 -16 6 -23 54 -9 68 16 16 48 1 51 -25z"/>
<path d="M17120 710 c0 -40 4 -70 10 -70 6 0 10 30 10 70 0 40 -4 70 -10 70
-6 0 -10 -30 -10 -70z"/>
<path d="M17703 755 c-6 -7 -8 -16 -3 -21 5 -5 10 -27 12 -49 2 -31 7 -40 23
-43 18 -2 18 -2 3 8 -21 13 -25 76 -6 82 10 4 9 8 -2 20 -12 12 -18 12 -27 3z"/>
<path d="M18300 745 c0 -8 7 -15 15 -15 8 0 15 7 15 15 0 8 -7 15 -15 15 -8 0
-15 -7 -15 -15z"/>
<path d="M16183 724 c-15 -24 -15 -29 -2 -53 27 -49 89 -36 89 20 0 57 -57 79
-87 33z m69 -11 c9 -43 -20 -75 -48 -52 -15 12 -19 51 -7 62 13 14 52 7 55
-10z"/>
<path d="M16300 707 c0 -50 15 -68 54 -65 25 2 26 5 24 58 -1 48 -2 50 -5 13
-7 -73 -53 -85 -53 -13 0 21 -4 42 -10 45 -6 4 -10 -11 -10 -38z"/>
<path d="M16478 695 c9 -31 20 -54 25 -52 6 2 16 21 22 43 l12 39 12 -42 c6
-24 15 -43 20 -43 4 0 13 18 20 41 7 23 15 47 18 55 3 8 1 14 -5 14 -6 0 -14
-15 -17 -32 -11 -52 -18 -55 -29 -14 -14 48 -27 47 -42 -1 l-11 -38 -12 43
c-6 23 -15 42 -20 42 -5 0 -1 -25 7 -55z"/>
<path d="M16637 743 c-11 -10 -8 -103 3 -103 6 0 10 25 10 55 0 56 -1 60 -13
48z"/>
<path d="M16966 734 c-31 -30 -12 -94 27 -94 27 0 54 16 44 26 -3 4 -13 2 -20
-5 -17 -14 -47 -4 -47 15 0 9 12 14 35 14 27 0 35 4 35 18 0 39 -45 55 -74 26z
m62 -21 c2 -9 -7 -13 -27 -13 -21 0 -31 5 -31 16 0 19 51 16 58 -3z"/>
<path d="M17182 738 c-7 -7 -12 -26 -12 -43 0 -36 15 -55 45 -55 30 0 45 19
45 57 0 45 -49 70 -78 41z m63 -28 c7 -23 -10 -60 -29 -60 -23 0 -39 28 -32
55 8 31 51 35 61 5z"/>
<path d="M17302 738 c-17 -17 -15 -73 3 -88 8 -7 24 -10 36 -7 15 4 19 1 17
-11 -3 -13 -13 -16 -37 -14 -20 1 -30 -2 -26 -8 9 -14 58 -13 73 2 7 7 12 39
12 72 l0 61 -33 2 c-18 2 -39 -3 -45 -9z m60 -25 c7 -32 -4 -53 -27 -53 -25 0
-39 23 -30 51 8 25 52 25 57 2z"/>
<path d="M17473 724 c-15 -24 -15 -29 -2 -53 27 -49 89 -36 89 20 0 57 -57 79
-87 33z m69 -11 c9 -43 -20 -75 -48 -52 -15 12 -19 51 -7 62 13 14 52 7 55
-10z"/>
<path d="M17594 700 l1 -55 38 0 37 -1 -1 56 -2 55 -6 -43 c-4 -23 -13 -48
-19 -54 -18 -18 -40 8 -45 55 -3 31 -4 27 -3 -13z"/>
<path d="M17827 743 c-11 -10 -8 -103 3 -103 6 0 10 25 10 55 0 56 -1 60 -13
48z"/>
<path d="M17870 693 c0 -29 5 -53 10 -53 6 0 10 20 10 45 0 41 2 45 25 45 23
0 25 -4 25 -45 0 -25 5 -45 10 -45 13 0 13 66 0 91 -8 14 -20 18 -45 16 l-35
-2 0 -52z"/>
<path d="M18300 675 c0 -8 7 -15 15 -15 8 0 15 7 15 15 0 8 -7 15 -15 15 -8 0
-15 -7 -15 -15z"/>
</g>
</svg>
