<svg width="54" height="40" viewBox="0 0 54 40" fill="none" xmlns="http://www.w3.org/2000/svg">
<g clip-path="url(#clip0_2_1)">
<path d="M42.5171 0H53.1702C53.7869 0 54.185 0.653429 53.9103 1.20546L48.5445 11.987C48.3875 12.3025 47.939 12.3025 47.782 11.987L42.1302 0.625264C41.99 0.337981 42.1975 0 42.5171 0Z" fill="#F99B1C"/>
<path d="M21.5697 1.73496L41.1546 39.5606C41.4462 40.1295 42.2423 40.1577 42.5788 39.6113L49.408 28.458C49.75 27.8947 49.3295 27.1736 48.6735 27.2074C48.3651 27.2243 48.0735 27.061 47.9221 26.7849L37.0223 7.02435C36.9775 6.93986 36.9214 6.87226 36.8485 6.80467C35.9963 6.06111 30.0754 1.09843 22.3491 0.529496C21.7155 0.484432 21.2782 1.16603 21.5697 1.73496Z" fill="#F99B1C"/>
<path d="M0.0954562 1.20374L19.6803 39.0294C19.9719 39.5983 20.7681 39.6265 21.1045 39.0801L27.9337 27.9267C28.2757 27.3634 27.8552 26.6424 27.1992 26.6762C26.8908 26.6931 26.5992 26.5297 26.4479 26.2537L15.5424 6.49314C15.4976 6.40864 15.4415 6.34105 15.3686 6.27345C14.522 5.52989 8.60111 0.56721 0.874815 -0.00172349C0.235629 -0.0467876 -0.201709 0.634807 0.0954562 1.20374Z" fill="#F99B1C"/>
</g>
<defs>
<clipPath id="clip0_2_1">
<rect width="54" height="40" fill="white"/>
</clipPath>
</defs>
</svg>
